<svg xmlns="http://www.w3.org/2000/svg" viewBox="0 0 96.01 45.7875" x="0px" y="0px"><g data-name="Layer 2"><g data-name="Layer 1"><path d="M79.13,26.27A1.68,1.68,0,1,0,80.8,28,1.68,1.68,0,0,0,79.13,26.27Z"/><path d="M79.13,19.27A8.68,8.68,0,1,0,87.81,28,8.68,8.68,0,0,0,79.13,19.27Zm0,12.36A3.68,3.68,0,1,1,82.8,28,3.68,3.68,0,0,1,79.13,31.63Z"/><path d="M18,19.27A8.68,8.68,0,1,0,26.7,28,8.69,8.69,0,0,0,18,19.27Zm0,12.36A3.68,3.68,0,1,1,21.69,28,3.68,3.68,0,0,1,18,31.63Z"/><path d="M18,26.27A1.68,1.68,0,1,0,19.69,28,1.68,1.68,0,0,0,18,26.27Z"/><path d="M94.4,18.86C88,14.6,80.05,12.29,70,11.8L56.4,2.26A9.07,9.07,0,0,0,52.63.73,73.68,73.68,0,0,0,43.73,0a1,1,0,0,0-.17,0c-.05,0-.09,0-.13,0a85.67,85.67,0,0,0-14,.72,8.84,8.84,0,0,0-3.55,1.38L14.11,9.9H6.89a3.72,3.72,0,0,0-3.71,3.71v1.53a1.72,1.72,0,0,1-.43,1.14l-1.8,2A3.72,3.72,0,0,0,0,21.21L.86,28a3.7,3.7,0,0,0,3.68,3.26H7.87A10.34,10.34,0,0,1,7.34,28,10.68,10.68,0,0,1,28.7,28a10.34,10.34,0,0,1-.53,3.31H69A10.34,10.34,0,0,1,68.45,28a10.68,10.68,0,0,1,21.36,0,10.34,10.34,0,0,1-.53,3.31h3A3.72,3.72,0,0,0,96,27.55V21.91A3.64,3.64,0,0,0,94.4,18.86ZM42.56,11.79H26.29l-3-5.54L27,3.8a7,7,0,0,1,2.77-1.08A81.16,81.16,0,0,1,42.56,2Zm2,0V2.06a68.29,68.29,0,0,1,7.76.65A7,7,0,0,1,55.26,3.9L66.5,11.79Z"/></g></g></svg>