<svg xmlns="http://www.w3.org/2000/svg" data-name="Layer 1" viewBox="0 0 100 125" x="0px" y="0px"><title>Vehicles</title><path d="M99.09,49.4c-.53-5.49-1.16-11-1.6-16.5-.31-3.9-2.62-6.24-6.56-6.24H89.6a2.52,2.52,0,0,1-1.43.44H8a2.55,2.55,0,0,1-1.44-.44c-.36,0-.72,0-1.09,0A5.37,5.37,0,0,0,0,32Q0,43.83,0,55.7H99.7C99.51,53.6,99.29,51.5,99.09,49.4ZM73.33,41.08a.42.42,0,0,1-.42.43H6.64a.42.42,0,0,1-.39-.58l3.31-8.19a.42.42,0,0,1,.39-.27h63a.42.42,0,0,1,.42.43Zm11,11H81.5a.65.65,0,0,1,0-1.29h2.8a.65.65,0,0,1,0,1.29Zm7.46-.4L80.84,42.41a1,1,0,0,1-.32-.81l-.16-8.18a.92.92,0,0,1,.91-.8H91.55a2.15,2.15,0,0,1,2.14,1.93L95.3,49.78A2.16,2.16,0,0,1,91.76,51.65Z"/><path d="M100,59.71c0-1.05-.13-2.1-.22-3.15H0c0,1,0,2,0,3a5.13,5.13,0,0,0,4.87,5.29c.18,0,3.33,0,8.37,0a6.71,6.71,0,0,0-.09,1.1,7.36,7.36,0,0,0,14.46,1.94A7.36,7.36,0,0,0,42.11,66a7.2,7.2,0,0,0-.08-1H71.48a7.36,7.36,0,0,0,14.72,0c5.37,0,8.79,0,9,0C98.32,64.72,100.16,62.79,100,59.71ZM20.55,70.11A4.13,4.13,0,1,1,24.69,66,4.13,4.13,0,0,1,20.55,70.11Zm14.2,0A4.13,4.13,0,1,1,38.88,66,4.14,4.14,0,0,1,34.75,70.11ZM78.84,69A4.14,4.14,0,1,1,83,64.9,4.15,4.15,0,0,1,78.84,69Z"/></svg>