<svg xmlns="http://www.w3.org/2000/svg" data-name="Layer 1" viewBox="0 0 100 125" x="0px" y="0px"><title>All4</title><path d="M98.27,36.13c-3,.06-5.95,0-8.92,0a0.53,0.53,0,0,1-.59-0.4c-0.25-.67-0.55-1.32-0.82-2-1.65-4-3.16-8.13-5-12.08-2.74-5.93-7.38-9.13-14.06-9.1-6.11,0-12.22,0-18.33,0-3.17,0-6.34,0-9.51,0-3.9,0-7.81-.09-11.71.13a13.06,13.06,0,0,0-9.41,4.76,22.85,22.85,0,0,0-3.44,6c-1.76,4.07-3.47,8.15-5.19,12.24a0.61,0.61,0,0,1-.67.44c-3,0-5.95,0-8.92,0a1.52,1.52,0,0,0-1.66,2c0.42,1.75.93,3.48,1.48,5.2a2.12,2.12,0,0,0,2.21,1.45c1.09,0,2.18,0,3.27,0a3.88,3.88,0,0,1,.42,0c-0.07.18-.11,0.32-0.16,0.45C6.36,47.63,5.43,50,4.52,52.39a2.83,2.83,0,0,0-.18,1q0,14.65,0,29.29a4.36,4.36,0,0,0,.34,1.65A4.53,4.53,0,0,0,9,87.38c3.44,0,6.88,0,10.32,0a4.49,4.49,0,0,0,4.45-3.7A15,15,0,0,0,23.95,81c0-2.22,0-4.44,0-6.66V73.75H76.09v0.66c0,2.53,0,5.05,0,7.58,0,3.54,1.85,5.39,5.4,5.41,2.78,0,5.55,0,8.33,0a11.19,11.19,0,0,0,1.44-.12,4.68,4.68,0,0,0,3.85-4.58c0.05-9.55,0-19.1,0-28.65a9.36,9.36,0,0,0-.35-2.42c-0.38-1.39-.86-2.76-1.32-4.13-0.3-.91-0.64-1.81-1-2.71,1.28,0,2.49,0,3.71,0a2.16,2.16,0,0,0,2.3-1.55c0.52-1.67,1-3.35,1.43-5A1.54,1.54,0,0,0,98.27,36.13ZM21.14,61.79H13.46a2,2,0,0,1-2-2V59.18a1.74,1.74,0,0,1,2-1.77l5.15,0.67c1.11,0.14,3.25,1.93,3.72,2.56S22.25,61.79,21.14,61.79Zm41.54-.08a5,5,0,0,1-.8.07H38.35a2.48,2.48,0,0,1-2-.75,2.06,2.06,0,0,1,1.1-3.41,4.63,4.63,0,0,1,1-.11H61.94a4.07,4.07,0,0,1,.85.09,2,2,0,0,1,1.74,2.12A2.1,2.1,0,0,1,62.68,61.71Zm-40.89-21a27.25,27.25,0,0,0-7.26.75c0.6-1.14,1.23-2.26,1.79-3.41,1.82-3.75,3.57-7.52,5.42-11.25a55,55,0,0,1,2.77-4.83,6.74,6.74,0,0,1,5.75-3.1c0.61,0,1.22,0,1.83,0H68.8a10.27,10.27,0,0,1,3.84.64,6.82,6.82,0,0,1,2.56,1.81,20.41,20.41,0,0,1,3.32,5.48c2.2,4.87,4.43,9.72,6.64,14.58l0.11,0.27A20,20,0,0,0,82.6,41c-2-.17-4.07-0.23-6.1-0.32-0.25,0-.5,0-0.75,0h-54ZM87.11,59.94a2,2,0,0,1-2,2H77.4c-1.12,0-1.65-.52-1.18-1.15s2.61-2.41,3.72-2.56l5.15-.67a1.74,1.74,0,0,1,2,1.77v0.58Z"/></svg>