<svg xmlns="http://www.w3.org/2000/svg" xmlns:xlink="http://www.w3.org/1999/xlink" version="1.1" x="0px" y="0px" viewBox="15 15 70 70" style="enable-background:new 0 0 0 0;" xml:space="preserve"><g><circle cx="49.6" cy="32.3" r="9"/><path d="M62.9,41.4c-2.4,0-6.8,5.2-13.1,5.2c-6.3,0-10.9-5.2-13.2-5.2s-6.3,1.2-6.3,4.9s2.6,5.6,2.6,5.6l5.2,2.6v2.3   c0,0-5.2,8.2-5.2,10.7c0,2.4,2.6,7.8,6.5,7.8c3.8,0,5.2-2.6,5.2-2.6l3.9-7.8H51l4.1,7.8c0,0,1.2,2.6,4.9,2.6s6.6-5.2,6.6-7.8   c0-2.6-5.2-10.4-5.2-10.4v-2.6l5.2-2.6c0,0,2.6-1.7,2.6-5.5C69,42.6,65.2,41.4,62.9,41.4z"/></g></svg>