<svg xmlns="http://www.w3.org/2000/svg" version="1.1" viewBox="-5.0 -10.0 110.0 135.0">
 <path d="m5 51.844h3.2734v-6.9219h-3.2734zm81.785 8.5742c-1.4062-1.4062-3.3516-2.2773-5.4961-2.2773-2.1445 0-4.0898 0.87109-5.4961 2.2773s-2.2773 3.3516-2.2773 5.4961c0 2.1445 0.87109 4.0898 2.2773 5.4961s3.3516 2.2773 5.4961 2.2773c2.1445 0 4.0898-0.87109 5.4961-2.2773s2.2773-3.3516 2.2773-5.4961c0-2.1445-0.87109-4.0898-2.2773-5.4961zm-59.391 0c-1.4062-1.4062-3.3516-2.2773-5.4961-2.2773-2.1445 0-4.0898 0.87109-5.4961 2.2773s-2.2773 3.3516-2.2773 5.4961c0 2.1445 0.87109 4.0898 2.2773 5.4961s3.3516 2.2773 5.4961 2.2773c2.1445 0 4.0898-0.87109 5.4961-2.2773s2.2773-3.3516 2.2773-5.4961c0-2.1445-0.87109-4.0898-2.2773-5.4961zm50.723-15.184v-0.98438c-2.3125-3.0547-4.6172-5.6172-6.9141-7.6875-2.2617-2.0391-4.5039-3.5898-6.7266-4.6484h-3.3242v13.324h16.965zm2.1602-1.3398v2.4219c0 0.59766-0.48438 1.0781-1.0781 1.0781h-19.125c-0.59766 0-1.0781-0.48438-1.0781-1.0781v-15.484c0-0.59766 0.48438-1.0781 1.0781-1.0781h4.6406c0.1875 0 0.36719 0.046875 0.51953 0.13281 2.4727 1.1523 4.9414 2.8438 7.4141 5.0703 2.4609 2.2188 4.9297 4.9844 7.4102 8.293 0.14453 0.19531 0.21484 0.42188 0.21484 0.64453zm-20.203 8.0781c-0.59766 0-1.0781-0.48438-1.0781-1.0781 0-0.59766 0.48438-1.0781 1.0781-1.0781h4.8398c0.59766 0 1.0781 0.48438 1.0781 1.0781 0 0.59766-0.48438 1.0781-1.0781 1.0781zm34.926 7.1719v1.043 0.36719h-0.003906c0 1.4648-0.55469 2.8047-1.4609 3.8203-0.625 0.70312-1.418 1.2539-2.3125 1.5859v-0.046876c0-2.7422-1.1133-5.2266-2.9102-7.0234s-4.2812-2.9102-7.0234-2.9102c-2.7422 0-5.2266 1.1133-7.0234 2.9102s-2.9102 4.2812-2.9102 7.0234c0 0.13281 0.003906 0.26953 0.007812 0.40234h-39.539c0.003906-0.13281 0.007812-0.26562 0.007812-0.40234 0-2.7422-1.1133-5.2266-2.9102-7.0234s-4.2812-2.9102-7.0234-2.9102c-2.7422 0-5.2266 1.1133-7.0234 2.9102s-2.9102 4.2812-2.9102 7.0234c0 0.13281 0.003906 0.26953 0.007812 0.40234h-1.2148c-1.582 0-3.0234-0.64844-4.0664-1.6914-1.043-1.043-1.6914-2.4844-1.6914-4.0664v-6.5547h4.3516c0.59766 0 1.0781-0.48438 1.0781-1.0781v-9.0781c0-0.59766-0.48438-1.0781-1.0781-1.0781h-4.3516v-10.691c0-1.582 0.64844-3.0234 1.6914-4.0664 1.043-1.043 2.4844-1.6914 4.0664-1.6914h54.977c6.6641 1.2266 14.086 8.8047 20.047 14.887 1.8789 1.9219 3.6172 3.6953 5.1484 5.0859 1.1289 1.0273 1.9453 2.1641 2.5352 3.3789h-8.7461c-0.59766 0-1.0781 0.48438-1.0781 1.0781 0 0.59766 0.48438 1.0781 1.0781 1.0781h9.5547c0.45703 1.6445 0.625 3.3867 0.6875 5.1602h-3.6094c-0.59766 0-1.0781 0.48438-1.0781 1.0781 0 0.59766 0.48437 1.0781 1.0781 1.0781z" fill-rule="evenodd"/>
<text x="0.0" y="117.5" font-size="5.0" font-weight="bold" font-family="Arbeit Regular, Helvetica, Arial-Unicode, Arial, Sans-serif" fill="#000000">Created by Darningsih</text><text x="0.0" y="122.5" font-size="5.0" font-weight="bold" font-family="Arbeit Regular, Helvetica, Arial-Unicode, Arial, Sans-serif" fill="#000000">from Noun Project</text></svg>