<svg xmlns="http://www.w3.org/2000/svg" version="1.1" viewBox="-5.0 -10.0 110.0 135.0">
 <path d="m7.0938 51.316c1.7578 0.27734 6.4883-2.8008 7.4023-3.8359-0.57812-0.18359-2.1992-0.24219-3.8203-0.12891-1.5156 0.91797-2.9023 2.1133-3.9844 3.6797 0.058594 0.16406 0.17578 0.25 0.40234 0.28516z"/>
 <path d="m19.656 50.637c-4.9844 0-9.0391 4.0547-9.0391 9.0391 0 4.9883 4.0547 9.043 9.0391 9.043s9.0391-4.0547 9.0391-9.0391c0.003907-4.9883-4.0547-9.043-9.0391-9.043z"/>
 <path d="m90.645 46.988c-0.0625 0.47266 0.027344 0.85156 0.28125 1.1523 0.38672 0.46094 1.0977 0.6875 1.625 0.78125 0.03125-1.3125-0.066406-4.9297-1.7695-8.5742l-0.94922 0.28125c0.33594 1.207 1.0977 4.3008 0.8125 6.3594z"/>
 <path d="m82.359 50.637c-4.9844 0-9.0391 4.0547-9.0391 9.0391s4.0547 9.0391 9.0391 9.0391 9.0391-4.0547 9.0391-9.0391c0.003906-4.9844-4.0547-9.0391-9.0391-9.0391z"/>
 <path d="m92.711 50c-0.53125-0.054688-1.8867-0.27734-2.6562-1.1953-0.44531-0.53125-0.61719-1.1914-0.51172-1.957 0.32031-2.3281-1.0703-6.9141-1.0703-6.9141l1.7617-0.51953c-0.51953-1.4375-2.5312-3.4062-2.5312-3.4062l0.74219-2.7852-12.434-1.4141c-0.20312-0.015625-22.668-1.6055-30.703 0.80469-4.9922 1.4961-11.133 5.0547-15.617 7.6484-2.9727 1.7188-5.3164 3.082-6.582 3.4453-0.53516 0.15625-6.4375 0.87109-10.301 2.5508 1.0781 0.027344 2.1445 0.15625 2.5625 0.54688 0.17188 0.16016 0.26562 0.37109 0.26562 0.58984 0 1.2969-5.6523 4.8047-8.125 4.9609-0.56641 0.035156-1.1094-0.14062-1.4023-0.40625-0.5 0.89062-0.91406 1.8828-1.207 3.0039v2.4609c0.19141 0.48047 0.875 2.457 0.15234 4.5703 0.74609 0.25781 2.4258 0.75 5.1367 1.1016-0.38672-1.0703-0.60938-2.2148-0.60938-3.4141 0-5.5547 4.5195-10.07 10.07-10.07 5.5547 0 10.07 4.5195 10.07 10.07 0 1.3203-0.26172 2.5781-0.72656 3.7344 11.762-0.039062 30.223 0.003906 44.031 0.050781-0.47656-1.1719-0.74609-2.4453-0.74609-3.7852 0-5.5547 4.5156-10.07 10.07-10.07 5.5625 0.003907 10.078 4.5234 10.078 10.078 0 0.96484-0.14453 1.8945-0.39844 2.7812 1.6289-0.85938 2.6641-2.1328 3.0625-3.8242v-5.9688zm-33.027-6.875c-12.273 0.66016-25.406 1.3594-27.75 1.457-2.375 0.10547-3.5625-0.16406-4.0938-0.375 1.9141-1.1133 7.7266-4.5 13.039-7.6406 3.2852-1.9375 12.41-2.9609 20.719-3.1992l-1.9648 9.7422zm8.2227-0.44531 0.40234-9.3242c4.9688 0.125 8.7539 0.56641 9.9922 1.1953 3.1523 1.6016 3.5117 5.9453 3.543 7.375-1.625 0.089844-7.1367 0.39062-13.938 0.75391z"/>
</svg>