<svg xmlns="http://www.w3.org/2000/svg" xmlns:xlink="http://www.w3.org/1999/xlink" version="1.1" x="0px" y="0px" viewBox="0 0 100 100" style="enable-background:new 0 0 100 100;" xml:space="preserve"><path d="M63.55,43.1c0.87,0,1.58-0.71,1.58-1.58c0-13.02-10.59-23.61-23.61-23.61c-0.87,0-1.58,0.71-1.58,1.58  c0,0.87,0.71,1.58,1.58,1.58c11.28,0,20.45,9.17,20.45,20.45C61.97,42.39,62.67,43.1,63.55,43.1z"/><path d="M67.81,58.86c3.29-4.98,5.22-10.93,5.22-17.34c0-17.38-14.14-31.51-31.52-31.51C24.14,10.01,10,24.14,10,41.52  s14.14,31.52,31.52,31.52c6.41,0,12.37-1.93,17.35-5.23l20.34,20.33c1.18,1.2,2.77,1.86,4.48,1.86c1.69,0,3.27-0.66,4.47-1.85  c2.46-2.46,2.46-6.47,0-8.94L67.81,58.86z M41.52,69.88c-15.63,0-28.35-12.72-28.35-28.35c0-15.63,12.72-28.35,28.35-28.35  s28.35,12.72,28.35,28.35C69.87,57.16,57.15,69.88,41.52,69.88z M85.92,85.91c-1.21,1.21-3.29,1.2-4.47,0L61.44,65.91  c1.64-1.34,3.13-2.84,4.47-4.47l20,20C87.15,82.67,87.15,84.67,85.92,85.91z"/></svg>