<svg xmlns="http://www.w3.org/2000/svg" version="1.1" viewBox="-10.0 0.0 120 100">
 <path d="m51.359 29.07h-9.3633c-6.9492 0-15.809 9.3086-19.16 13.141h28.523z"/>
 <path d="m19.121 59.508c-1.7773 0-3.2266 1.4453-3.2266 3.2266s1.4453 3.2266 3.2266 3.2266c1.7773 0 3.2266-1.4453 3.2266-3.2266 0-1.7773-1.4492-3.2266-3.2266-3.2266z"/>
 <path d="m93.602 48.074c-0.003906 0.10547-0.003906 0.22656-0.003906 0.33203 0 0.10938 0 0.22656 0.003906 0.33203 0.32031 0.023438 0.86328 0.023438 1.4297 0.023438l1.4688 0.003906v-0.71484h-1.4727c-0.5625 0-1.1055 0-1.4258 0.023438z"/>
 <path d="m53.359 29.07h4.8359v13.141h-4.8359z"/>
 <path d="m19.121 54.543c-4.5156 0-8.1914 3.6758-8.1914 8.1914s3.6758 8.1914 8.1914 8.1914 8.1914-3.6758 8.1914-8.1914-3.6758-8.1914-8.1914-8.1914zm0 13.418c-2.8828 0-5.2266-2.3438-5.2266-5.2266s2.3438-5.2266 5.2266-5.2266c2.8828 0 5.2266 2.3438 5.2266 5.2266s-2.3477 5.2266-5.2266 5.2266z"/>
 <path d="m93.602 53.211c-0.003906 0.10547-0.003906 0.22656-0.003906 0.33203s0 0.22656 0.003906 0.33203c0.32031 0.023438 0.86328 0.023438 1.4297 0.023438l1.4688 0.003906v-0.71484h-1.4727c-0.5625 0-1.1055 0-1.4258 0.023438z"/>
 <path d="m95.027 55.902c-2.3555 0-3.4297 0-3.4297-2.3555s1.0742-2.3555 3.4297-2.3555l1.4727-0.003906v-0.42578h-1.4727c-2.3555 0-3.4297 0-3.4297-2.3555s1.0742-2.3555 3.4297-2.3555h1.4727v-1.8398h-79.207c-7.8672 0-13.422 7.1602-13.762 17.523h5.4453c0.50391-5.1523 4.8594-9.1914 10.141-9.1914s9.6367 4.0391 10.141 9.1914h38.164c0.50391-5.1523 4.8594-9.1914 10.141-9.1914s9.6367 4.0391 10.141 9.1914h2.4648c5.207 0 5.9375-0.015625 6.2852-5.8359z"/>
 <path d="m77.566 54.543c-4.5156 0-8.1914 3.6758-8.1914 8.1914 0 4.5195 3.6758 8.1914 8.1914 8.1914 4.5195 0 8.1914-3.6758 8.1914-8.1914s-3.6719-8.1914-8.1914-8.1914zm0 13.418c-2.8828 0-5.2266-2.3438-5.2266-5.2266s2.3438-5.2266 5.2266-5.2266c2.8828 0 5.2266 2.3438 5.2266 5.2266s-2.3438 5.2266-5.2266 5.2266z"/>
 <path d="m77.566 59.512c-1.7773 0-3.2266 1.4453-3.2266 3.2266 0 1.7773 1.4453 3.2266 3.2266 3.2266 1.7773 0 3.2266-1.4453 3.2266-3.2266s-1.4453-3.2266-3.2266-3.2266z"/>
</svg>