<svg xmlns="http://www.w3.org/2000/svg" xmlns:xlink="http://www.w3.org/1999/xlink" version="1.1" x="0px" y="0px" viewBox="00 00 100 100" style="enable-background:new 0 0 100 100;" xml:space="preserve"><g><path d="M50,22.7c5,0,9-4.1,9-9c0-5-4.1-9-9-9s-9,4.1-9,9C40.9,18.6,45,22.7,50,22.7z"/><path d="M64.2,25.5c-5.2,0-23.3,0-28.5,0c-7.8,0-7.8,7.8-7.8,7.8l0,0V54c0,0,0,5.2,5.2,5.2c2.6,0,2.6-5.2,2.6-5.2V35.8h2.6v52   c0,0,0,5.2,5.2,5.2s5.2-5.2,5.2-5.2V54h2.6v33.8c0,0,0,5.2,5.2,5.2c5.2,0,5.2-5.2,5.2-5.2v-52h2.6V54c0,0,0,5.2,2.6,5.2   C72,59.2,72,54,72,54V33.2C72,33.2,72,25.5,64.2,25.5z"/></g></svg>