<svg xmlns="http://www.w3.org/2000/svg" version="1.1" viewBox="-10.0 -10.0 135.0 135.0">
    <path d="m64.672 22.66c-1.9688 1.4609-2.9609 3.0781-2.9609 4.8008 0 0.53906 0.44141 0.98047 0.98047 0.98047 0.53906 0 0.98047-0.44141 0.98047-0.98047 0-1.0703 0.73047-2.1484 2.1719-3.2305 1.1992-0.89062 1.8594-2.1016 1.8594-3.3906 0-1.3008-0.66016-2.5-1.8594-3.3906-1.4414-1.0703-2.1719-2.1602-2.1719-3.2305s0.73047-2.1484 2.1719-3.2305c1.1992-0.89062 1.8594-2.1016 1.8594-3.3906 0-1.3008-0.66016-2.5-1.8594-3.3906-1.4414-1.0703-2.1719-2.1602-2.1719-3.2305 0-0.53906-0.44141-0.98047-0.98047-0.98047-0.53906 0-0.98047 0.44141-0.98047 0.98047 0 1.7188 1 3.3398 2.9609 4.8008 0.69141 0.51172 1.0586 1.1602 1.0586 1.8203s-0.37891 1.3086-1.0586 1.8203c-1.9688 1.4609-2.9609 3.0781-2.9609 4.8008 0 1.7188 1 3.3398 2.9609 4.8008 0.69141 0.51172 1.0586 1.1602 1.0586 1.8203 0.007812 0.66016-0.37109 1.3086-1.0586 1.8203z"/>
    <path d="m79.359 22.66c-1.9688 1.4609-2.9609 3.0781-2.9609 4.8008 0 0.53906 0.44141 0.98047 0.98047 0.98047 0.53906 0 0.98047-0.44141 0.98047-0.98047 0-1.0703 0.73047-2.1484 2.1719-3.2305 1.1992-0.89062 1.8594-2.1016 1.8594-3.3906 0-1.3008-0.66016-2.5-1.8594-3.3906-1.4414-1.0703-2.1719-2.1602-2.1719-3.2305s0.73047-2.1484 2.1719-3.2305c1.1992-0.89062 1.8594-2.1016 1.8594-3.3906 0-1.3008-0.66016-2.5-1.8594-3.3906-1.4414-1.0703-2.1719-2.1602-2.1719-3.2305 0-0.53906-0.44141-0.98047-0.98047-0.98047-0.53906 0-0.98047 0.44141-0.98047 0.98047 0 1.7188 1 3.3398 2.9609 4.8008 0.69141 0.51172 1.0586 1.1602 1.0586 1.8203s-0.37891 1.3086-1.0586 1.8203c-1.9688 1.4609-2.9609 3.0781-2.9609 4.8008 0 1.7188 1 3.3398 2.9609 4.8008 0.69141 0.51172 1.0586 1.1602 1.0586 1.8203 0.003906 0.66016-0.37891 1.3086-1.0586 1.8203z"/>
    <path d="m94.039 22.66c-1.9688 1.4609-2.9609 3.0781-2.9609 4.8008 0 0.53906 0.44141 0.98047 0.98047 0.98047 0.53906 0 0.98047-0.44141 0.98047-0.98047 0-1.0703 0.73047-2.1484 2.1719-3.2305 1.1992-0.89062 1.8594-2.1016 1.8594-3.3906 0-1.3008-0.66016-2.5-1.8594-3.3906-1.4414-1.0703-2.1719-2.1602-2.1719-3.2305s0.73047-2.1484 2.1719-3.2305c1.1992-0.89062 1.8594-2.1016 1.8594-3.3906 0-1.3008-0.66016-2.5-1.8594-3.3906-1.4414-1.0703-2.1719-2.1602-2.1719-3.2305 0-0.53906-0.44141-0.98047-0.98047-0.98047-0.53906 0-0.98047 0.44141-0.98047 0.98047 0 1.7188 1 3.3398 2.9609 4.8008 0.69141 0.51172 1.0586 1.1602 1.0586 1.8203s-0.37891 1.3086-1.0586 1.8203c-1.9688 1.4609-2.9609 3.0781-2.9609 4.8008 0 1.7188 1 3.3398 2.9609 4.8008 0.69141 0.51172 1.0586 1.1602 1.0586 1.8203 0.011719 0.66016-0.36719 1.3086-1.0586 1.8203z"/>
    <path d="m96.18 96.469h-92.352c-0.98047 0-1.7695 0.78906-1.7695 1.7617 0 0.98047 0.78906 1.7695 1.7695 1.7695h92.359c0.96875 0 1.7617-0.78906 1.7617-1.7695-0.007813-0.96875-0.80078-1.7617-1.7695-1.7617z"/>
    <path d="m22.641 36.289c0.51953-0.28125 1.0391-0.53906 1.5703-0.80078s1.0703-0.51172 1.6211-0.73047l-2.0898-4.3281c-0.19922-0.42188-0.57031-0.73828-1.0117-0.89844-0.44141-0.14844-0.92188-0.12891-1.3398 0.070312-0.42188 0.21094-0.73828 0.57031-0.89844 1.0117-0.14844 0.44922-0.12891 0.92188 0.078124 1.3398z"/>
    <path d="m78.238 54.512c-7.2188-13.422-21.289-21.219-35.789-21.219-4.9883 0-10.039 0.92188-14.871 2.8711-0.85156 0.33984-1.6914 0.71094-2.5117 1.1094-0.82812 0.39844-1.6406 0.82812-2.4297 1.2695-17.676 10.035-25.246 32.219-17.195 51.066zm-49.797-12.871c6.7188-3.2383 14.441-4.1016 21.699-2.4297 7.1484 1.6484 13.621 5.6992 18.211 11.371 0.32813 0.42188 0.26953 1.0508-0.14844 1.3789-0.17969 0.14844-0.39844 0.21875-0.60938 0.21875-0.28125 0-0.57812-0.12891-0.76953-0.37109-9.0703-11.23-24.5-14.699-37.531-8.4102-0.48047 0.23828-1.0703 0.019531-1.3086-0.46094-0.23438-0.48828-0.035156-1.0664 0.45703-1.2969z"/>
    <path d="m76.641 85.699c-0.39844 0.058593-0.80078-0.14844-0.98828-0.51172-1.4883-2.75-4.3594-4.4609-7.4883-4.4609-1.6406 0-3.2188 0.46094-4.5898 1.3281-0.41016 0.26953-0.96875 0.17969-1.2891-0.19922-1.6289-1.9688-4.0195-3.1016-6.5703-3.1016-4.6914 0-8.5195 3.8203-8.5195 8.5195 0 0.35156 0.019532 0.71094 0.058594 1.0703 0.058594 0.44141-0.19141 0.85938-0.60156 1.0312-0.41016 0.17969-0.87891 0.039062-1.1602-0.32031-1.6289-2.1719-4.1211-3.4219-6.8203-3.4219-2.5898 0-5 1.1602-6.6289 3.1719-0.28125 0.35156-0.78125 0.46875-1.1914 0.26953-1.1406-0.53906-2.3711-0.82812-3.6406-0.82812-3.8516 0-7.1992 2.6094-8.1992 6.2383h67.141c0.011718-0.10938 0.011718-0.21875 0.011718-0.33984 0-4.6914-3.8203-8.5195-8.5195-8.5195-0.33594 0.023438-0.67578 0.046875-1.0039 0.074219z"/>
</svg>