<svg xmlns="http://www.w3.org/2000/svg" version="1.1" viewBox="-10.0 -5.0 110.0 110.0">
    <path d="m23.289 76.352c-0.64844 0-1.1719-0.52344-1.1719-1.1719v-55.945c0-2.1133 1.7227-3.8359 3.8359-3.8359h43.93c2.1133 0 3.8359 1.7227 3.8359 3.8359l0.007812 19.633c0 0.64844-0.52344 1.1719-1.1719 1.1719-0.64844 0-1.1719-0.52344-1.1719-1.1719v-19.633c0-0.82422-0.66797-1.4922-1.4922-1.4922l-43.934-0.003907c-0.82422 0-1.4922 0.66797-1.4922 1.4922v55.945c-0.003906 0.65234-0.52344 1.1758-1.1758 1.1758z"/>
    <path d="m63.457 84.566h-0.52734c-0.64844 0-1.1719-0.52344-1.1719-1.1719 0-0.64844 0.52344-1.1719 1.1719-1.1719h0.52734c4.3711 0 7.918-3.5547 7.918-7.918v-19.453c0-0.64844 0.52344-1.1719 1.1719-1.1719s1.1719 0.52344 1.1719 1.1719v19.453c0 5.6562-4.6016 10.262-10.262 10.262z"/>
    <path d="m62.93 84.566h-41.051c-5.1719 0-9.3789-4.2109-9.3789-9.3789 0-0.64844 0.52344-1.1719 1.1719-1.1719h41.051c0.60156 0 1.1094 0.46094 1.168 1.0547 0.003906 0.046876 0.003906 0.09375 0.003906 0.14063 0.015625 3.8672 3.1641 7.0117 7.0352 7.0117 0.58984 0 1.0898 0.4375 1.1641 1.0312 0.074219 0.58594-0.30469 1.1367-0.87891 1.2812-0.09375 0.015625-0.1875 0.03125-0.28516 0.03125zm-47.988-8.2148c0.5625 3.3242 3.457 5.8633 6.9375 5.8633h34.852c-1.6758-1.4766-2.8203-3.5391-3.1094-5.8633z"/>
    <path d="m68.398 63.168c-0.20313 0-0.41016-0.054688-0.58984-0.15625l-6.9375-4.0312c-0.5625-0.32812-0.75-1.0391-0.42578-1.6016l17.414-29.977c0.66797-1.1523 1.7539-1.9766 3.043-2.3203 1.2891-0.34375 2.6367-0.16016 3.793 0.50781l0.32031 0.1875c1.1523 0.66797 1.9766 1.7539 2.3203 3.043 0.34375 1.2891 0.16016 2.6367-0.50781 3.793l-17.414 29.977c-0.15625 0.26953-0.41016 0.46484-0.71094 0.54297-0.10547 0.027344-0.20703 0.035157-0.30469 0.035157zm-5.3398-5.625 4.9141 2.8555 16.828-28.965c0.73828-1.2656 0.30469-2.8945-0.96094-3.6289l-0.32031-0.1875c-0.61719-0.35547-1.3281-0.45313-2.0117-0.26953-0.68359 0.17969-1.2578 0.62109-1.6172 1.2305z"/>
    <path d="m60.348 69.043c-0.20312 0-0.40625-0.054688-0.58984-0.15625-0.39844-0.23438-0.62891-0.68359-0.57812-1.1406l1.1133-9.9023c0.074219-0.64453 0.64844-1.1016 1.293-1.0352 0.64453 0.074218 1.1094 0.65625 1.0352 1.293l-0.81641 7.2578 5.8984-4.3008c0.52344-0.38281 1.2539-0.26953 1.6367 0.25781 0.38281 0.52344 0.26953 1.2539-0.25781 1.6367l-8.0469 5.8672c-0.20703 0.14453-0.44922 0.22266-0.6875 0.22266z"/>
    <path d="m81.727 40.215c-0.19922 0-0.39844-0.046875-0.58594-0.16016l-6.9375-4.0312c-0.5625-0.32813-0.75-1.0391-0.42578-1.6016 0.32812-0.5625 1.0391-0.75 1.6016-0.42578l6.9375 4.0312c0.5625 0.32812 0.75 1.0391 0.42578 1.6016-0.21875 0.375-0.60938 0.58594-1.0156 0.58594z"/>
    <path d="m83.516 37.141c-0.19922 0-0.39844-0.046875-0.58594-0.16016l-6.9375-4.0312c-0.5625-0.32812-0.75-1.0391-0.42578-1.6016 0.32812-0.5625 1.0391-0.75 1.6016-0.42578l6.9375 4.0312c0.5625 0.32812 0.75 1.0391 0.42578 1.6016-0.21875 0.375-0.60938 0.58594-1.0156 0.58594z"/>
    <path d="m65.305 24.027h-22.195c-0.64844 0-1.1719-0.52344-1.1719-1.1719 0-0.64844 0.52344-1.1719 1.1719-1.1719h22.191c0.64844 0 1.1719 0.52344 1.1719 1.1719 0.003906 0.65234-0.51953 1.1719-1.168 1.1719z"/>
    <path d="m35.473 24.027h-4.9297c-0.64844 0-1.1719-0.52344-1.1719-1.1719 0-0.64844 0.52344-1.1719 1.1719-1.1719h4.9297c0.64844 0 1.1719 0.52344 1.1719 1.1719 0 0.65234-0.52734 1.1719-1.1719 1.1719z"/>
    <path d="m65.305 31.531h-4.3984c-0.64844 0-1.1719-0.52344-1.1719-1.1719s0.52344-1.1719 1.1719-1.1719h4.3984c0.64844 0 1.1719 0.52344 1.1719 1.1719 0 0.65234-0.52344 1.1719-1.1719 1.1719z"/>
    <path d="m53.266 31.531h-22.727c-0.64844 0-1.1719-0.52344-1.1719-1.1719s0.52344-1.1719 1.1719-1.1719h22.73c0.64844 0 1.1719 0.52344 1.1719 1.1719-0.003906 0.65234-0.53125 1.1719-1.1758 1.1719z"/>
    <path d="m65.305 39.031h-18.375c-0.64844 0-1.1719-0.52344-1.1719-1.1719s0.52344-1.1719 1.1719-1.1719h18.375c0.64844 0 1.1719 0.52344 1.1719 1.1719 0 0.65234-0.52344 1.1719-1.1719 1.1719z"/>
    <path d="m39.293 39.031h-8.7539c-0.64844 0-1.1719-0.52344-1.1719-1.1719s0.52344-1.1719 1.1719-1.1719h8.7539c0.64844 0 1.1719 0.52344 1.1719 1.1719 0 0.65234-0.52734 1.1719-1.1719 1.1719z"/>
    <path d="m64.758 46.531h-5.4375c-0.64844 0-1.1719-0.52344-1.1719-1.1719s0.52344-1.1719 1.1719-1.1719h5.4375c0.64844 0 1.1719 0.52344 1.1719 1.1719 0 0.65234-0.52344 1.1719-1.1719 1.1719z"/>
    <path d="m51.68 46.531h-21.141c-0.64844 0-1.1719-0.52344-1.1719-1.1719s0.52344-1.1719 1.1719-1.1719h21.141c0.64844 0 1.1719 0.52344 1.1719 1.1719 0 0.65234-0.52344 1.1719-1.1719 1.1719z"/>
    <path d="m59.32 54.039h-16.211c-0.64844 0-1.1719-0.52344-1.1719-1.1719 0-0.64844 0.52344-1.1719 1.1719-1.1719h16.211c0.64844 0 1.1719 0.52344 1.1719 1.1719 0 0.64844-0.52734 1.1719-1.1719 1.1719z"/>
    <path d="m35.473 54.039h-4.9297c-0.64844 0-1.1719-0.52344-1.1719-1.1719 0-0.64844 0.52344-1.1719 1.1719-1.1719h4.9297c0.64844 0 1.1719 0.52344 1.1719 1.1719 0 0.64844-0.52734 1.1719-1.1719 1.1719z"/>
    <path d="m56.359 61.539h-25.82c-0.64844 0-1.1719-0.52344-1.1719-1.1719 0-0.64844 0.52344-1.1719 1.1719-1.1719h25.816c0.64844 0 1.1719 0.52344 1.1719 1.1719-0.003906 0.64844-0.52344 1.1719-1.168 1.1719z"/>
    <path d="m56.359 69.043h-25.82c-0.64844 0-1.1719-0.52344-1.1719-1.1719 0-0.64844 0.52344-1.1719 1.1719-1.1719h25.816c0.64844 0 1.1719 0.52344 1.1719 1.1719-0.003906 0.64844-0.52344 1.1719-1.168 1.1719z"/>
</svg>