<svg xmlns="http://www.w3.org/2000/svg" version="1.1" viewBox="-5.0 -10.0 110.0 110.0">
    <path d="m96.449 60.27c0.25-1.207 0.95703-5.2422 0.28125-9.4609-1.5-7.5586-19.18-7.6953-24.461-8.3516-1.3125-0.94531-6.9688-4.9766-10.953-6.9609-17.176-9.4414-38.461-3.3906-48.293 4.5859h-8.5156c-1.1953 0-1.6172 1.6094-0.57031 2.1953 0.007812 0.007812 1.0156 0.59766 1.0156 1.6641v4.6016c-0.85156 0.36719-2.2266 0.67969-2.2969 2.4531v7.4883c-0.21875 2.2891 6.9531 4.0781 10.566 4.6094-0.20312-0.78906-0.3125-1.6094-0.30078-2.4336 0.035156-5.1328 4.2188-9.2969 9.3594-9.2969 6.4648-0.09375 11.148 6.7422 8.7344 12.727h41.289c-2.4102-5.9883 2.2734-12.82 8.7344-12.727 6.4609-0.09375 11.145 6.7422 8.7344 12.727h6.4062c0.38281 0 0.74219-0.1875 0.96094-0.5 0.21875-0.31641 0.27344-0.71875 0.14062-1.0781l-0.82812-2.2461zm-55.91-25.902c10.484-0.35938 15.484 2.7148 21.215 6.0781 0.51172 0.30469 1.0352 0.61719 1.5742 0.92969 0.51172 0.29688 0.75 0.89062 0.59375 1.4766-0.15625 0.57813-0.64062 0.95703-1.2344 0.95703h-21.305c-0.15625 0-0.28125-0.11719-0.29297-0.27344l-0.625-8.9492c-0.007813-0.082032 0.023437-0.16406 0.078125-0.21875zm-33.684 14.531c-0.1875 0-0.34375-0.15234-0.34375-0.34375v-3.1406c0-0.22266 0.21484-0.39062 0.42969-0.33203 0.12109 0.03125 0.23828 0.070313 0.35156 0.10938 1.3672 0.46094 2.3125 1.3672 2.2188 3.3789-0.007813 0.18359-0.16016 0.32813-0.34375 0.32813h-2.3164zm15.719-5.0859c-0.9375 0-1.7422-0.55469-2.0469-1.4102-0.28906-0.81641-0.042969-1.668 0.64062-2.2266 4-3.1797 9.3281-5.3789 15.68-5.6328 0.0625 0.054687 0.09375 0.13281 0.09375 0.21875v8.7578c0 0.16016-0.13281 0.29297-0.29297 0.29297h-14.078zm67.629 6.6719c-0.16406-0.30469 0.0625-0.67578 0.40625-0.67578h4.2734c0.14844 0 0.28125 0.070312 0.36719 0.1875 0.015625 0.019531 0.03125 0.042968 0.042969 0.066406 0.45312 0.85156 0.65625 1.7578 0.57031 2.7344-0.007812 0.074219-0.03125 0.14062-0.070312 0.20312-0.082031 0.12891-0.22656 0.21484-0.39062 0.21484h-2.3828c-1.2109 0-2.2969-1.7344-2.8203-2.7266z"/>
    <path d="m81.035 52.539c-5.8477-0.09375-9.9453 6.2734-7.4648 11.555 2.8438 6.3906 12.086 6.3906 14.93 0 2.4766-5.2812-1.6172-11.648-7.4648-11.555zm4.3086 10.383c-0.82031 1.5938-2.4414 2.6367-4.3086 2.6406-2.2969 0.007812-4.2578-1.6289-4.7266-3.8125-0.67188-2.957 1.6875-5.8984 4.7266-5.8594 3.543-0.0625 5.9766 3.9141 4.3086 7.0312z"/>
    <path d="m22.277 52.539c-4.5625-0.003906-8.2656 3.75-8.1875 8.3203 0.25781 8.7383 11.961 11.141 15.652 3.2383 2.4766-5.2812-1.6172-11.648-7.4648-11.555zm0 13.023c-2.6719 0.019531-4.8555-2.2344-4.8359-4.8359 0-2.668 2.1719-4.8359 4.8359-4.8359 3.0391-0.039063 5.4062 2.9062 4.7266 5.8594-0.46875 2.1875-2.4297 3.8203-4.7266 3.8125z"/>
    <path d="m81.035 57.059c-3.9766 0.054687-5.0703 5.4219-1.4453 7.0312 0.875 0.39453 2.0156 0.39453 2.8945 0 3.625-1.6133 2.5273-6.9766-1.4453-7.0312z"/>
    <path d="m22.277 57.059c-3.7344 0.035156-5.0508 4.9297-1.8477 6.8281 0.97266 0.60156 2.3672 0.66406 3.3984 0.15625 3.5195-1.6953 2.3594-6.9375-1.5508-6.9883z"/>
</svg>