<?xml version="1.0" encoding="UTF-8"?>
<!DOCTYPE svg PUBLIC "-//W3C//DTD SVG 1.1//EN" "http://www.w3.org/Graphics/SVG/1.1/DTD/svg11.dtd">
<svg xmlns="http://www.w3.org/2000/svg" version="1.1" width="1754px" height="1241px" style="shape-rendering:geometricPrecision; text-rendering:geometricPrecision; image-rendering:optimizeQuality; fill-rule:evenodd; clip-rule:evenodd" xmlns:xlink="http://www.w3.org/1999/xlink">
<g><path style="opacity:1" fill="#fefefe" d="M -0.5,-0.5 C 584.167,-0.5 1168.83,-0.5 1753.5,-0.5C 1753.5,413.167 1753.5,826.833 1753.5,1240.5C 1168.83,1240.5 584.167,1240.5 -0.5,1240.5C -0.5,826.833 -0.5,413.167 -0.5,-0.5 Z"/></g>
<g><path style="opacity:1" fill="#bd944b" d="M 1036.5,80.5 C 1037.38,80.3691 1038.04,80.7025 1038.5,81.5C 1041.04,86.7451 1043.71,91.9117 1046.5,97C 1052.52,97.9071 1058.52,98.9071 1064.5,100C 1060.33,104.167 1056.17,108.333 1052,112.5C 1052.45,119.207 1053.12,125.874 1054,132.5C 1048.74,129.119 1043.24,126.119 1037.5,123.5C 1032.17,126.167 1026.83,128.833 1021.5,131.5C 1021.17,130.667 1020.83,129.833 1020.5,129C 1021.62,123.476 1022.45,117.976 1023,112.5C 1018.79,107.985 1014.29,103.818 1009.5,100C 1015.82,98.7516 1022.16,97.585 1028.5,96.5C 1031.18,91.1401 1033.85,85.8068 1036.5,80.5 Z"/></g>
<g><path style="opacity:1" fill="#be944c" d="M 808.5,79.5 C 811.484,84.7263 814.484,90.0597 817.5,95.5C 823.644,97.6377 829.977,99.1377 836.5,100C 832.333,104.167 828.167,108.333 824,112.5C 824.457,119.228 825.124,125.894 826,132.5C 820.53,129.122 814.864,126.122 809,123.5C 803.927,126.287 798.761,128.953 793.5,131.5C 793.167,130.667 792.833,129.833 792.5,129C 793.757,123.542 794.257,118.042 794,112.5C 789.833,108.333 785.667,104.167 781.5,100C 787.895,98.9438 794.228,97.6105 800.5,96C 803.578,90.677 806.245,85.177 808.5,79.5 Z"/></g>
<g><path style="opacity:1" fill="#be944c" d="M 960.5,79.5 C 964.186,85.0264 967.519,90.8597 970.5,97C 976.564,97.6127 982.564,98.6127 988.5,100C 983.786,104.378 979.453,109.044 975.5,114C 976.863,120.137 977.697,126.303 978,132.5C 972.666,128.998 966.999,125.998 961,123.5C 955.927,126.287 950.761,128.953 945.5,131.5C 945.167,130.833 944.833,130.167 944.5,129.5C 946.125,123.581 946.625,117.581 946,111.5C 941.533,108.035 937.367,104.202 933.5,100C 939.777,98.3891 946.11,97.0558 952.5,96C 955.578,90.677 958.245,85.177 960.5,79.5 Z"/></g>
<g><path style="opacity:1" fill="#be944c" d="M 884.5,79.5 C 888.059,84.939 891.392,90.6056 894.5,96.5C 900.442,97.8971 906.442,99.0638 912.5,100C 908.333,104.167 904.167,108.333 900,112.5C 900.236,119.238 900.903,125.905 902,132.5C 896.323,129.483 890.657,126.483 885,123.5C 879.927,126.287 874.761,128.953 869.5,131.5C 869.167,130.333 868.833,129.167 868.5,128C 869.293,122.745 870.126,117.579 871,112.5C 866.199,108.701 861.699,104.534 857.5,100C 863.342,98.6097 869.342,97.6097 875.5,97C 879.164,91.5047 882.164,85.6714 884.5,79.5 Z"/></g>
<g><path style="opacity:1" fill="#2d3e46" d="M 993.5,287.5 C 998.833,287.5 1004.17,287.5 1009.5,287.5C 1009.5,358.167 1009.5,428.833 1009.5,499.5C 1003.91,499.807 998.407,499.473 993,498.5C 992.639,473.37 985.639,450.37 972,429.5C 955.63,412.407 935.463,403.573 911.5,403C 904.842,402.5 898.175,402.334 891.5,402.5C 891.333,456.168 891.5,509.834 892,563.5C 892.985,574.301 898.485,581.801 908.5,586C 914.008,587.851 919.675,588.851 925.5,589C 959.895,592.328 993.228,587.994 1025.5,576C 1054.39,562.772 1076.56,542.272 1092,514.5C 1097.83,502.833 1103.67,491.167 1109.5,479.5C 1115.46,478.504 1121.46,478.171 1127.5,478.5C 1119.04,522.126 1110.71,565.792 1102.5,609.5C 979.5,609.5 856.5,609.5 733.5,609.5C 733.5,604.167 733.5,598.833 733.5,593.5C 747.4,592.7 760.733,589.533 773.5,584C 783.481,577.209 788.648,567.709 789,555.5C 789.667,448.833 789.667,342.167 789,235.5C 788.331,220.636 781.165,210.47 767.5,205C 756.421,201.726 745.088,199.893 733.5,199.5C 733.5,194.167 733.5,188.833 733.5,183.5C 854.833,183.5 976.167,183.5 1097.5,183.5C 1097.5,225.833 1097.5,268.167 1097.5,310.5C 1092.17,310.5 1086.83,310.5 1081.5,310.5C 1078.87,284.432 1070.04,260.766 1055,239.5C 1044.06,227.611 1030.9,219.111 1015.5,214C 982.599,206.238 949.265,203.572 915.5,206C 902.072,207.763 894.239,215.263 892,228.5C 891.5,279.166 891.333,329.832 891.5,380.5C 913.6,381.586 934.6,377.42 954.5,368C 967.885,359.743 977.385,348.243 983,333.5C 988.495,318.508 991.995,303.175 993.5,287.5 Z"/></g>
<g><path style="opacity:1" fill="#be944b" d="M 1363.5,487.5 C 1366.35,491.277 1366.02,494.777 1362.5,498C 1350.23,501.736 1345.07,497.236 1347,484.5C 1353.21,476.989 1360.71,475.489 1369.5,480C 1377.74,486.386 1380.08,494.386 1376.5,504C 1388.43,500.949 1399.77,502.616 1410.5,509C 1421.78,518.345 1424.61,529.845 1419,543.5C 1413.5,553.004 1406.5,561.337 1398,568.5C 1381.58,588.522 1380.24,609.522 1394,631.5C 1410.67,651.037 1431.17,656.537 1455.5,648C 1473.88,639.726 1483.05,625.559 1483,605.5C 1479.54,593.989 1472.04,589.156 1460.5,591C 1456.76,594.015 1456.59,597.182 1460,600.5C 1462.7,594.743 1466.37,594.077 1471,598.5C 1470.79,607.888 1465.95,611.388 1456.5,609C 1448.96,604.968 1446.46,598.802 1449,590.5C 1454.07,580.765 1461.23,572.932 1470.5,567C 1478.18,562.158 1486.18,557.825 1494.5,554C 1510.14,548.54 1525.81,543.207 1541.5,538C 1548.48,534.357 1553.31,528.857 1556,521.5C 1556.5,519.527 1556.66,517.527 1556.5,515.5C 1559.32,515.752 1561.99,515.252 1564.5,514C 1555.54,514.376 1551.38,510.209 1552,501.5C 1558.55,492.088 1566.22,491.088 1575,498.5C 1580.69,509.432 1579.19,519.265 1570.5,528C 1578.48,525.977 1580.31,528.477 1576,535.5C 1569.47,543.861 1560.97,549.361 1550.5,552C 1555.04,553.153 1557.04,555.82 1556.5,560C 1550.22,558.851 1543.89,557.518 1537.5,556C 1523.69,554.177 1510.36,555.844 1497.5,561C 1502.91,560.151 1508.41,559.651 1514,559.5C 1520.97,558.991 1527.3,560.658 1533,564.5C 1533.67,566.167 1533.67,567.833 1533,569.5C 1530.2,571.886 1527.04,573.719 1523.5,575C 1514.21,576.483 1504.88,576.816 1495.5,576C 1492.1,575.422 1488.93,574.255 1486,572.5C 1485.83,572.833 1485.67,573.167 1485.5,573.5C 1486.67,574.584 1488,575.417 1489.5,576C 1499.32,578.537 1508.98,581.537 1518.5,585C 1520.85,586.013 1522.51,587.679 1523.5,590C 1521.53,591.658 1519.53,593.325 1517.5,595C 1520.43,594.544 1523.43,594.544 1526.5,595C 1528.32,596.466 1528.82,598.299 1528,600.5C 1523.47,606.171 1517.64,608.004 1510.5,606C 1506.6,604.435 1502.93,602.435 1499.5,600C 1494.54,594.665 1488.88,590.665 1482.5,588C 1491.47,595.898 1494.63,605.731 1492,617.5C 1487.38,636.615 1475.88,649.615 1457.5,656.5C 1456.53,656.987 1455.53,657.487 1454.5,658C 1472.83,658.5 1491.16,658.667 1509.5,658.5C 1512.97,660.563 1513.31,663.063 1510.5,666C 1403.5,666.667 1296.5,666.667 1189.5,666C 1186.72,662.979 1187.05,660.479 1190.5,658.5C 1209.84,658.667 1229.17,658.5 1248.5,658C 1247.96,657.283 1247.29,656.783 1246.5,656.5C 1220.05,641.269 1209.55,618.603 1215,588.5C 1193.13,618.708 1166.96,644.541 1136.5,666C 1128.01,670.5 1123.85,668 1124,658.5C 1234.04,577.756 1278.04,469.756 1256,334.5C 1240.71,271.27 1209.54,217.436 1162.5,173C 1149.96,162.122 1137.12,151.622 1124,141.5C 1123.23,133.614 1126.73,130.781 1134.5,133C 1212.07,188.264 1258.57,263.097 1274,357.5C 1284.71,347.934 1297.21,344.434 1311.5,347C 1342.55,356.909 1355.38,378.076 1350,410.5C 1348.06,416.976 1345.73,423.309 1343,429.5C 1336.81,440.554 1331.14,451.888 1326,463.5C 1322.38,472.861 1321.05,482.528 1322,492.5C 1327.55,507.022 1338.05,513.522 1353.5,512C 1364.15,509.7 1368.98,503.2 1368,492.5C 1366.95,490.292 1365.45,488.626 1363.5,487.5 Z"/></g>
<g><path style="opacity:1" fill="#be944b" d="M 600.5,656.5 C 599.711,656.783 599.044,657.283 598.5,658C 618.164,658.5 637.831,658.667 657.5,658.5C 658.993,659.312 659.66,660.645 659.5,662.5C 659.43,663.772 659.097,664.938 658.5,666C 551.167,666.667 443.833,666.667 336.5,666C 335.903,664.938 335.57,663.772 335.5,662.5C 335.34,660.645 336.007,659.312 337.5,658.5C 355.836,658.667 374.17,658.5 392.5,658C 391.756,656.961 390.756,656.461 389.5,656.5C 371.455,648.946 359.955,635.613 355,616.5C 353.019,605.248 356.186,595.748 364.5,588C 359.325,590.287 354.658,593.62 350.5,598C 343.516,604.83 335.182,607.497 325.5,606C 320.522,603.718 318.855,600.051 320.5,595C 325.117,593.703 328.95,594.87 332,598.5C 332.163,596.613 331.329,595.113 329.5,594C 322.629,592.533 321.962,589.866 327.5,586C 338.597,581.191 349.931,577.191 361.5,574C 357.513,574.324 353.513,574.991 349.5,576C 342.167,576.667 334.833,576.667 327.5,576C 322.406,574.974 317.906,572.807 314,569.5C 314.21,564.275 317.043,561.109 322.5,560C 328.5,559.333 334.5,559.333 340.5,560C 344.446,561.324 348.446,561.991 352.5,562C 332.012,553.902 311.345,553.402 290.5,560.5C 290.677,556.474 292.677,553.641 296.5,552C 285.994,549.004 277.494,543.171 271,534.5C 269.798,532.323 269.298,529.989 269.5,527.5C 272.011,527.838 274.345,527.838 276.5,527.5C 269.099,519.143 267.599,509.809 272,499.5C 276.608,493.44 282.441,491.94 289.5,495C 294.534,498.231 296.368,502.731 295,508.5C 293.891,510.815 292.057,512.315 289.5,513C 286.764,513.422 284.098,513.422 281.5,513C 282.167,513.667 282.833,514.333 283.5,515C 286.572,515.456 289.572,515.456 292.5,515C 290.871,522.113 292.871,528.113 298.5,533C 302.841,536.172 307.508,538.839 312.5,541C 337.273,546.556 360.273,556.223 381.5,570C 388.848,576.007 394.681,583.173 399,591.5C 400.48,604.687 394.646,610.52 381.5,609C 375.823,605.284 375.157,600.95 379.5,596C 383.708,594.701 386.375,596.201 387.5,600.5C 391.13,594.101 389.13,590.435 381.5,589.5C 367.891,593.364 362.391,602.364 365,616.5C 374.473,643.669 393.639,655.169 422.5,651C 451.726,642.389 464.893,622.889 462,592.5C 459.663,584.483 455.997,577.15 451,570.5C 441.444,562.621 433.777,553.287 428,542.5C 422.158,525.018 427.658,512.518 444.5,505C 453.085,501.876 461.752,501.709 470.5,504.5C 467.164,492.68 470.831,483.847 481.5,478C 489.964,475.656 496.464,478.156 501,485.5C 502.313,496.519 497.48,501.019 486.5,499C 483.038,496.761 481.705,493.594 482.5,489.5C 485.337,486.899 488.17,486.899 491,489.5C 491.163,487.269 489.997,485.935 487.5,485.5C 484.819,485.932 482.819,487.266 481.5,489.5C 478.861,492.299 478.028,495.632 479,499.5C 484.321,510.734 493.155,514.9 505.5,512C 522.523,505.673 529.023,493.506 525,475.5C 523.404,469.379 521.404,463.379 519,457.5C 513.922,447.01 508.589,436.677 503,426.5C 494.046,406.933 494.379,387.6 504,368.5C 518.963,348.068 538.463,341.902 562.5,350C 566.004,351.918 569.337,354.084 572.5,356.5C 588.576,262.117 635.576,187.617 713.5,133C 721.532,131.53 724.532,134.697 722.5,142.5C 624.003,213.843 578.503,310.509 586,432.5C 598.665,526.081 643.165,600.248 719.5,655C 724.821,659.381 724.821,663.715 719.5,668C 717.833,668.667 716.167,668.667 714.5,668C 682.787,645.956 655.287,619.456 632,588.5C 638.001,618.831 627.501,641.497 600.5,656.5 Z"/></g>
<g><path style="opacity:1" fill="#919a9f" d="M 993.5,287.5 C 998.975,286.511 1004.64,286.178 1010.5,286.5C 1010.83,357.669 1010.5,428.669 1009.5,499.5C 1009.5,428.833 1009.5,358.167 1009.5,287.5C 1004.17,287.5 998.833,287.5 993.5,287.5 Z"/></g>
<g><path style="opacity:1" fill="#fefdfd" d="M 536.5,355.5 C 546.156,354.24 555.156,356.074 563.5,361C 566.762,363.592 569.262,366.759 571,370.5C 571.057,376.828 570.723,383.161 570,389.5C 566.677,395.908 561.511,398.075 554.5,396C 552.04,394.542 549.873,392.709 548,390.5C 547.097,386.242 548.597,384.575 552.5,385.5C 557.013,385.105 558.513,382.771 557,378.5C 549.177,373.473 543.177,375.139 539,383.5C 537.833,397.676 544.5,405.009 559,405.5C 563.018,405.715 566.685,404.715 570,402.5C 570.98,419.573 572.313,436.573 574,453.5C 565.996,446.869 556.829,444.703 546.5,447C 539.849,449.485 534.515,453.652 530.5,459.5C 524.275,446.717 517.775,434.05 511,421.5C 503.387,405.246 503.721,389.246 512,373.5C 518.379,364.938 526.546,358.938 536.5,355.5 Z"/></g>
<g><path style="opacity:1" fill="#fefdfd" d="M 1295.5,355.5 C 1318.92,353.789 1334.09,364.122 1341,386.5C 1342.78,398.99 1341.11,410.99 1336,422.5C 1329.14,434.888 1322.81,447.554 1317,460.5C 1313.09,452.956 1306.92,448.456 1298.5,447C 1288.96,445.344 1280.46,447.511 1273,453.5C 1272.83,452.833 1272.67,452.167 1272.5,451.5C 1275.42,435.3 1277.09,418.966 1277.5,402.5C 1288.73,407.85 1298.57,405.85 1307,396.5C 1311.95,385.73 1308.78,378.73 1297.5,375.5C 1293.57,375.621 1290.91,377.454 1289.5,381C 1290.1,382.605 1291.1,383.938 1292.5,385C 1298.57,383.071 1300.74,385.238 1299,391.5C 1290.78,398.803 1283.45,398.136 1277,389.5C 1271.98,371.866 1278.15,360.532 1295.5,355.5 Z"/></g>
<g><path style="opacity:1" fill="#fdfcfa" d="M 548.5,455.5 C 560.884,453.272 569.384,457.939 574,469.5C 575.464,481.405 570.964,490.238 560.5,496C 551.218,498.154 541.885,499.988 532.5,501.5C 534.694,494.364 536.027,487.031 536.5,479.5C 545.406,486.148 554.24,486.148 563,479.5C 564.151,475.171 563.318,471.338 560.5,468C 554.666,467.004 552.333,469.504 553.5,475.5C 543.895,476.158 539.395,471.825 540,462.5C 542.416,459.577 545.25,457.243 548.5,455.5 Z"/></g>
<g><path style="opacity:1" fill="#fdfcf9" d="M 1286.5,455.5 C 1291.6,455.175 1296.6,455.675 1301.5,457C 1311.06,463.541 1310.73,469.541 1300.5,475C 1298.19,475.497 1295.86,475.663 1293.5,475.5C 1294.82,470.007 1292.82,467.507 1287.5,468C 1281.49,474.618 1282.49,479.951 1290.5,484C 1298.52,485.371 1305.68,483.537 1312,478.5C 1312.01,486.756 1313.01,494.756 1315,502.5C 1305.52,500.337 1296.02,498.17 1286.5,496C 1273.4,487.702 1270.24,476.536 1277,462.5C 1279.79,459.535 1282.96,457.202 1286.5,455.5 Z"/></g>
<g><path style="opacity:1" fill="#e1cfae" d="M 482.5,489.5 C 482.167,489.5 481.833,489.5 481.5,489.5C 482.819,487.266 484.819,485.932 487.5,485.5C 489.997,485.935 491.163,487.269 491,489.5C 488.17,486.899 485.337,486.899 482.5,489.5 Z"/></g>
<g><path style="opacity:1" fill="#e1cfae" d="M 1363.5,487.5 C 1361.47,487.662 1359.47,487.495 1357.5,487C 1359.67,485.112 1361.67,485.279 1363.5,487.5 Z"/></g>
<g><path style="opacity:1" fill="#fefefe" d="M 581.5,485.5 C 589.86,513.227 601.527,539.56 616.5,564.5C 616.167,564.833 615.833,565.167 615.5,565.5C 605.589,559.057 595.589,558.891 585.5,565C 580.354,569.792 578.521,575.625 580,582.5C 583.655,589.07 589.155,591.237 596.5,589C 601.924,586.983 603.758,583.15 602,577.5C 596.276,571.477 592.443,572.477 590.5,580.5C 589.359,578.579 589.192,576.579 590,574.5C 596.254,568.354 603.087,567.854 610.5,573C 625.481,587.817 628.648,604.984 620,624.5C 609.242,643.235 593.075,654.068 571.5,657C 533.721,660.524 504.221,646.691 483,615.5C 466.432,580.614 472.599,550.447 501.5,525C 509.19,520.488 517.19,516.488 525.5,513C 538.475,509.839 551.475,506.839 564.5,504C 572.805,500.198 578.471,494.031 581.5,485.5 Z"/></g>
<g><path style="opacity:1" fill="#fefefe" d="M 1264.5,485.5 C 1268.2,493.7 1274.2,499.867 1282.5,504C 1297.37,506.839 1312.03,510.506 1326.5,515C 1351.18,524.352 1366.68,541.852 1373,567.5C 1375.57,608.515 1357.74,636.682 1319.5,652C 1298.48,659.258 1277.48,659.258 1256.5,652C 1231.92,640.097 1221.09,620.597 1224,593.5C 1226.01,585.314 1230.17,578.481 1236.5,573C 1243.57,568.165 1250.4,568.332 1257,573.5C 1259.11,576.138 1258.94,578.472 1256.5,580.5C 1254.65,572.412 1250.82,571.412 1245,577.5C 1243.22,583.056 1245.06,586.89 1250.5,589C 1265.07,590.764 1270.23,584.598 1266,570.5C 1259.76,561.637 1251.26,558.471 1240.5,561C 1237.03,562.419 1233.69,563.752 1230.5,565C 1245.8,540.222 1257.14,513.722 1264.5,485.5 Z"/></g>
<g><path style="opacity:1" fill="#fdfcfa" d="M 453.5,511.5 C 462.435,509.97 469.269,512.97 474,520.5C 475.611,529.218 472.111,533.051 463.5,532C 469.895,531.957 471.728,529.123 469,523.5C 462.068,518.583 456.735,519.917 453,527.5C 452.408,536.43 456.741,541.097 466,541.5C 469.168,541.457 472.168,540.791 475,539.5C 475.167,539.833 475.333,540.167 475.5,540.5C 469.385,550.678 465.551,561.678 464,573.5C 458.118,564.612 451.118,556.612 443,549.5C 434.848,540.281 433.514,530.281 439,519.5C 443.134,515.354 447.968,512.687 453.5,511.5 Z"/></g>
<g><path style="opacity:1" fill="#fdfcfa" d="M 1378.5,530.5 C 1378.5,531.167 1378.17,531.5 1377.5,531.5C 1373.38,529.923 1371.88,526.923 1373,522.5C 1379.29,511.166 1388.45,508.332 1400.5,514C 1413.57,521.394 1416.07,531.56 1408,544.5C 1402.37,551.136 1396.37,557.469 1390,563.5C 1387.75,566.328 1385.75,569.328 1384,572.5C 1382.02,560.887 1377.85,550.054 1371.5,540C 1378.34,542.315 1385.01,541.648 1391.5,538C 1395.72,532.391 1395.38,527.058 1390.5,522C 1381.6,518.781 1377.6,521.614 1378.5,530.5 Z"/></g>
<g><path style="opacity:1" fill="#f9f5ee" d="M 281.5,516.5 C 283.117,517.038 284.784,517.371 286.5,517.5C 287.521,528.037 292.521,536.204 301.5,542C 305.545,544.573 309.878,546.573 314.5,548C 296.207,545.208 285.207,534.708 281.5,516.5 Z"/></g>
<g><path style="opacity:1" fill="#f6f0e6" d="M 1565.5,515.5 C 1565.97,520.307 1564.8,524.974 1562,529.5C 1553.12,542.191 1540.95,549.024 1525.5,550C 1544.6,546.722 1556.94,535.889 1562.5,517.5C 1563.74,517.058 1564.74,516.391 1565.5,515.5 Z"/></g>
<g><path style="opacity:1" fill="#f9f4ed" d="M 483.5,518.5 C 486.054,519.606 488.721,520.439 491.5,521C 488.628,523.537 486.128,526.37 484,529.5C 483.501,525.848 483.335,522.182 483.5,518.5 Z"/></g>
<g><path style="opacity:1" fill="#faf6f1" d="M 1363.5,517.5 C 1364.1,517.735 1364.43,518.235 1364.5,519C 1363.8,522.128 1363.3,525.294 1363,528.5C 1360.5,526 1358,523.5 1355.5,521C 1358.48,520.295 1361.14,519.129 1363.5,517.5 Z"/></g>
<g><path style="opacity:1" fill="#dbc59f" d="M 1378.5,530.5 C 1380.8,531.498 1383.14,531.665 1385.5,531C 1382.84,532.743 1380.18,532.909 1377.5,531.5C 1378.17,531.5 1378.5,531.167 1378.5,530.5 Z"/></g>
<g><path style="opacity:1" fill="#f5eee3" d="M 366.5,578.5 C 370.182,578.335 373.848,578.501 377.5,579C 379.044,579.29 380.377,579.956 381.5,581C 368.366,580.043 357.533,584.543 349,594.5C 352.362,586.645 358.196,581.311 366.5,578.5 Z"/></g>
<g><path style="opacity:1" fill="#f6f0e6" d="M 1470.5,578.5 C 1482.71,577.774 1492.05,582.607 1498.5,593C 1497.83,593.667 1497.17,593.667 1496.5,593C 1488.42,584.304 1478.42,580.304 1466.5,581C 1467.86,580.066 1469.19,579.232 1470.5,578.5 Z"/></g>
<g><path style="opacity:1" fill="#fefdfc" d="M 516.5,656.5 C 489.167,657.833 461.833,657.833 434.5,656.5C 453.834,648.663 466.334,634.663 472,614.5C 482.179,633.515 497.013,647.515 516.5,656.5 Z"/></g>
<g><path style="opacity:1" fill="#fefdfc" d="M 1413.5,656.5 C 1386.17,657.833 1358.83,657.833 1331.5,656.5C 1351.42,647.414 1366.25,633.081 1376,613.5C 1381.27,634.26 1393.77,648.593 1413.5,656.5 Z"/></g>
<g><path style="opacity:1" fill="#ddc9a4" d="M 389.5,656.5 C 390.756,656.461 391.756,656.961 392.5,658C 374.17,658.5 355.836,658.667 337.5,658.5C 354.833,657.833 372.167,657.167 389.5,656.5 Z"/></g>
<g><path style="opacity:1" fill="#dcc8a3" d="M 434.5,656.5 C 461.833,657.833 489.167,657.833 516.5,656.5C 517.289,656.783 517.956,657.283 518.5,658C 489.5,658.667 460.5,658.667 431.5,658C 432.244,656.961 433.244,656.461 434.5,656.5 Z"/></g>
<g><path style="opacity:1" fill="#ddc8a3" d="M 600.5,656.5 C 619.5,657.167 638.5,657.833 657.5,658.5C 637.831,658.667 618.164,658.5 598.5,658C 599.044,657.283 599.711,656.783 600.5,656.5 Z"/></g>
<g><path style="opacity:1" fill="#ddc9a4" d="M 1246.5,656.5 C 1247.29,656.783 1247.96,657.283 1248.5,658C 1229.17,658.5 1209.84,658.667 1190.5,658.5C 1209.17,657.833 1227.83,657.167 1246.5,656.5 Z"/></g>
<g><path style="opacity:1" fill="#ddc8a3" d="M 1331.5,656.5 C 1358.83,657.833 1386.17,657.833 1413.5,656.5C 1414.29,656.783 1414.96,657.283 1415.5,658C 1386.83,658.667 1358.17,658.667 1329.5,658C 1330.04,657.283 1330.71,656.783 1331.5,656.5 Z"/></g>
<g><path style="opacity:1" fill="#ddc8a3" d="M 1457.5,656.5 C 1474.83,657.167 1492.17,657.833 1509.5,658.5C 1491.16,658.667 1472.83,658.5 1454.5,658C 1455.53,657.487 1456.53,656.987 1457.5,656.5 Z"/></g>
<g><path style="opacity:1" fill="#2e3f47" d="M 825.5,719.5 C 817.016,718.507 808.349,718.174 799.5,718.5C 799.176,725.354 799.509,732.021 800.5,738.5C 800.92,742.558 803.253,744.558 807.5,744.5C 799.833,745.833 792.167,745.833 784.5,744.5C 786.917,743.928 789.084,742.928 791,741.5C 791.667,725.833 791.667,710.167 791,694.5C 789.084,693.072 786.917,692.072 784.5,691.5C 792.167,690.167 799.833,690.167 807.5,691.5C 804.478,691.928 801.978,693.261 800,695.5C 799.5,702.158 799.334,708.825 799.5,715.5C 808.167,715.5 816.833,715.5 825.5,715.5C 825.666,708.492 825.5,701.492 825,694.5C 822.645,693.192 820.145,692.192 817.5,691.5C 825.5,690.167 833.5,690.167 841.5,691.5C 838.478,691.928 835.978,693.261 834,695.5C 833.333,710.5 833.333,725.5 834,740.5C 835.978,742.739 838.478,744.072 841.5,744.5C 833.833,745.833 826.167,745.833 818.5,744.5C 821.211,743.961 823.377,742.628 825,740.5C 825.5,733.508 825.666,726.508 825.5,719.5 Z"/></g>
<g><path style="opacity:1" fill="#2e3f47" d="M 944.5,694.5 C 941.713,693.523 938.713,693.19 935.5,693.5C 935.171,708.676 935.504,723.676 936.5,738.5C 936.297,740.39 936.963,741.89 938.5,743C 940.577,743.192 942.577,743.692 944.5,744.5C 936.5,745.833 928.5,745.833 920.5,744.5C 922.078,743.702 923.744,743.202 925.5,743C 926.823,742.184 927.489,741.017 927.5,739.5C 928.496,724.342 928.83,709.009 928.5,693.5C 924.629,693.185 920.962,693.518 917.5,694.5C 913.081,695.257 910.747,697.924 910.5,702.5C 909.778,702.918 909.278,703.584 909,704.5C 908.501,700.848 908.335,697.182 908.5,693.5C 908.5,692.5 908.5,691.5 908.5,690.5C 924.167,690.5 939.833,690.5 955.5,690.5C 955.827,695.214 955.493,699.88 954.5,704.5C 954.102,698.102 950.769,694.769 944.5,694.5 Z"/></g>
<g><path style="opacity:1" fill="#33434c" d="M 1004.5,690.5 C 1004.67,694.182 1004.5,697.848 1004,701.5C 1003.62,700.944 1003.12,700.611 1002.5,700.5C 1002.2,697.358 1000.53,695.191 997.5,694C 990.833,693.333 984.167,693.333 977.5,694C 976.521,700.744 976.188,707.578 976.5,714.5C 982.509,714.666 988.509,714.499 994.5,714C 995.416,713.626 996.25,713.126 997,712.5C 997.543,710.369 998.376,708.369 999.5,706.5C 1000.83,712.833 1000.83,719.167 999.5,725.5C 998.547,723.092 997.213,720.925 995.5,719C 989.258,717.63 982.925,717.13 976.5,717.5C 976.334,725.174 976.5,732.841 977,740.5C 977.5,741 978,741.5 978.5,742C 985.556,742.788 992.556,742.455 999.5,741C 1003.07,738.353 1006.07,735.187 1008.5,731.5C 1008.83,731.667 1009.17,731.833 1009.5,732C 1008.33,736.189 1006.99,740.356 1005.5,744.5C 990.5,745.833 975.5,745.833 960.5,744.5C 962.917,743.928 965.084,742.928 967,741.5C 967.667,725.833 967.667,710.167 967,694.5C 965.084,693.072 962.917,692.072 960.5,691.5C 975.152,690.501 989.818,690.167 1004.5,690.5 Z"/></g>
<g><path style="opacity:1" fill="#35454d" d="M 1013.5,690.5 C 1021.53,690.169 1029.53,690.502 1037.5,691.5C 1034.74,692.029 1032.24,693.029 1030,694.5C 1029.33,709.833 1029.33,725.167 1030,740.5C 1030.5,741 1031,741.5 1031.5,742C 1037.5,742.667 1043.5,742.667 1049.5,742C 1051.73,741.439 1053.73,740.439 1055.5,739C 1057.34,736.331 1059.34,733.831 1061.5,731.5C 1061.83,731.667 1062.17,731.833 1062.5,732C 1061.17,736.333 1059.83,740.667 1058.5,745C 1043.49,745.833 1028.49,745.666 1013.5,744.5C 1015.92,743.928 1018.08,742.928 1020,741.5C 1020.67,725.833 1020.67,710.167 1020,694.5C 1017.57,693.357 1015.41,692.024 1013.5,690.5 Z"/></g>
<g><path style="opacity:1" fill="#33444c" d="M 867.5,689.5 C 893.338,689.173 904.504,701.84 901,727.5C 896.414,740.226 887.247,746.559 873.5,746.5C 856.006,744.33 847.339,734.33 847.5,716.5C 848.1,702.953 854.767,693.953 867.5,689.5 Z"/></g>
<g><path style="opacity:1" fill="#fcfcfc" d="M 869.5,692.5 C 881.527,691.348 889.027,696.682 892,708.5C 892.95,716.974 892.283,725.307 890,733.5C 884.283,743.626 876.116,746.126 865.5,741C 862.117,737.731 859.617,733.897 858,729.5C 857.333,722.167 857.333,714.833 858,707.5C 859.466,700.551 863.3,695.551 869.5,692.5 Z"/></g>
<g><path style="opacity:1" fill="#929b9f" d="M 1004.5,690.5 C 1005.48,694.298 1005.82,698.298 1005.5,702.5C 1003.82,702.715 1002.82,702.048 1002.5,700.5C 1003.12,700.611 1003.62,700.944 1004,701.5C 1004.5,697.848 1004.67,694.182 1004.5,690.5 Z"/></g>
<g><path style="opacity:1" fill="#6a767e" d="M 917.5,694.5 C 920.962,693.518 924.629,693.185 928.5,693.5C 928.83,709.009 928.496,724.342 927.5,739.5C 927.5,724.5 927.5,709.5 927.5,694.5C 924.167,694.5 920.833,694.5 917.5,694.5 Z"/></g>
<g><path style="opacity:1" fill="#6a767e" d="M 944.5,694.5 C 941.833,694.5 939.167,694.5 936.5,694.5C 936.5,709.167 936.5,723.833 936.5,738.5C 935.504,723.676 935.171,708.676 935.5,693.5C 938.713,693.19 941.713,693.523 944.5,694.5 Z"/></g>
<g><path style="opacity:1" fill="#afb6ba" d="M 908.5,693.5 C 908.335,697.182 908.501,700.848 909,704.5C 909.278,703.584 909.778,702.918 910.5,702.5C 910.5,703.5 910.5,704.5 910.5,705.5C 909.5,705.5 908.5,705.5 907.5,705.5C 907.183,701.298 907.517,697.298 908.5,693.5 Z"/></g>
<g><path style="opacity:1" fill="#9ba3a6" d="M 825.5,719.5 C 817.167,719.5 808.833,719.5 800.5,719.5C 800.5,725.833 800.5,732.167 800.5,738.5C 799.509,732.021 799.176,725.354 799.5,718.5C 808.349,718.174 817.016,718.507 825.5,719.5 Z"/></g>
<g><path style="opacity:1" fill="#cdae75" d="M 1084.5,757.5 C 1084.5,757.833 1084.5,758.167 1084.5,758.5C 973.833,758.5 863.167,758.5 752.5,758.5C 752.5,759.5 752.5,760.5 752.5,761.5C 752.167,761.5 751.833,761.5 751.5,761.5C 751.5,760.167 751.5,758.833 751.5,757.5C 862.5,757.5 973.5,757.5 1084.5,757.5 Z"/></g>
<g><path style="opacity:1" fill="#bc9348" d="M 1084.5,758.5 C 1084.5,759.5 1084.5,760.5 1084.5,761.5C 973.833,761.5 863.167,761.5 752.5,761.5C 752.5,760.5 752.5,759.5 752.5,758.5C 863.167,758.5 973.833,758.5 1084.5,758.5 Z"/></g>
<g><path style="opacity:1" fill="#dfc9a4" d="M 1084.5,757.5 C 1085.45,758.919 1085.78,760.585 1085.5,762.5C 973.999,762.833 862.665,762.499 751.5,761.5C 751.833,761.5 752.167,761.5 752.5,761.5C 863.167,761.5 973.833,761.5 1084.5,761.5C 1084.5,760.5 1084.5,759.5 1084.5,758.5C 1084.5,758.167 1084.5,757.833 1084.5,757.5 Z"/></g>
<g><path style="opacity:1" fill="#304149" d="M 1106.5,780.5 C 1111.57,780.34 1116.57,780.84 1121.5,782C 1128.09,784.807 1134.76,787.307 1141.5,789.5C 1146.88,789.463 1150.21,786.796 1151.5,781.5C 1154.09,780.52 1156.75,780.187 1159.5,780.5C 1158.24,791.203 1152.91,799.036 1143.5,804C 1139.17,804.667 1134.83,804.667 1130.5,804C 1123.2,800.568 1115.7,797.735 1108,795.5C 1102.25,795.748 1099.42,798.748 1099.5,804.5C 1096.5,804.5 1093.5,804.5 1090.5,804.5C 1091.6,798.458 1093.76,792.792 1097,787.5C 1099.79,784.535 1102.96,782.202 1106.5,780.5 Z"/></g>
<g><path style="opacity:1" fill="#2e3f47" d="M 1268.5,824.5 C 1292.77,821.764 1313.6,828.764 1331,845.5C 1351.56,873.528 1352.9,902.528 1335,932.5C 1323.61,946.783 1308.78,955.283 1290.5,958C 1266.5,961.28 1246,954.447 1229,937.5C 1215.56,919.742 1210.56,899.742 1214,877.5C 1221.21,848.459 1239.37,830.792 1268.5,824.5 Z"/></g>
<g><path style="opacity:1" fill="#2f4048" d="M 690.5,824.5 C 697.175,824.334 703.842,824.5 710.5,825C 717.095,827.144 723.762,828.977 730.5,830.5C 734.434,830.735 736.768,828.901 737.5,825C 739.473,824.505 741.473,824.338 743.5,824.5C 743.5,838.167 743.5,851.833 743.5,865.5C 741.5,865.5 739.5,865.5 737.5,865.5C 734.076,848.245 724.076,836.745 707.5,831C 695.155,828.1 686.321,832.266 681,843.5C 680.134,848.709 680.801,853.709 683,858.5C 686.042,861.933 689.542,864.766 693.5,867C 705.01,873.255 716.677,879.255 728.5,885C 749.01,898.853 753.844,917.019 743,939.5C 736.284,948.448 727.451,954.281 716.5,957C 708.214,958.454 699.881,958.787 691.5,958C 684.138,956.268 676.805,954.435 669.5,952.5C 666.322,952.673 664.322,954.34 663.5,957.5C 661.955,958.452 660.288,958.785 658.5,958.5C 658.5,942.833 658.5,927.167 658.5,911.5C 660.5,911.5 662.5,911.5 664.5,911.5C 665.943,928.904 674.276,941.737 689.5,950C 702.372,954.822 713.538,952.322 723,942.5C 728.842,929.756 725.676,919.923 713.5,913C 700.054,906.778 687.054,899.778 674.5,892C 657.898,876.825 655.064,859.325 666,839.5C 672.788,832.033 680.955,827.033 690.5,824.5 Z"/></g>
<g><path style="opacity:1" fill="#2d3e47" d="M 480.5,916.5 C 482.781,916.077 484.448,916.744 485.5,918.5C 482.788,930.728 480.455,943.062 478.5,955.5C 441.5,955.5 404.5,955.5 367.5,955.5C 367.5,953.833 367.5,952.167 367.5,950.5C 372.127,950.427 376.46,949.26 380.5,947C 382.317,945.2 383.484,943.034 384,940.5C 384.167,924.167 384.333,907.833 384.5,891.5C 384.64,873.783 384.14,856.117 383,838.5C 378.839,834.09 373.673,832.09 367.5,832.5C 367.5,830.833 367.5,829.167 367.5,827.5C 403.833,827.5 440.167,827.5 476.5,827.5C 476.5,840.167 476.5,852.833 476.5,865.5C 474.833,865.5 473.167,865.5 471.5,865.5C 470.748,847.92 461.748,837.753 444.5,835C 436.167,834.333 427.833,834.333 419.5,835C 417.274,836.227 415.774,838.061 415,840.5C 414.5,855.83 414.333,871.163 414.5,886.5C 433.848,887.818 444.181,878.818 445.5,859.5C 447.045,858.548 448.712,858.215 450.5,858.5C 450.5,879.833 450.5,901.167 450.5,922.5C 448.833,922.5 447.167,922.5 445.5,922.5C 445.134,902.133 434.801,892.466 414.5,893.5C 414.333,909.503 414.5,925.503 415,941.5C 415.427,945.527 417.594,948.027 421.5,949C 449.732,953.226 469.399,942.392 480.5,916.5 Z"/></g>
<g><path style="opacity:1" fill="#2d3e47" d="M 610.5,906.5 C 610.783,907.289 611.283,907.956 612,908.5C 612.829,886.996 612.663,865.663 611.5,844.5C 611.559,840.452 609.892,837.285 606.5,835C 602.687,833.228 598.687,832.395 594.5,832.5C 594.5,830.833 594.5,829.167 594.5,827.5C 608.167,827.5 621.833,827.5 635.5,827.5C 635.5,829.167 635.5,830.833 635.5,832.5C 628.637,831.732 623.804,834.399 621,840.5C 620.5,879.832 620.333,919.165 620.5,958.5C 618.208,958.756 616.041,958.423 614,957.5C 586.333,923.833 558.667,890.167 531,856.5C 530.333,883.833 530.333,911.167 531,938.5C 533.537,947.037 539.371,951.037 548.5,950.5C 548.5,952.167 548.5,953.833 548.5,955.5C 534.167,955.5 519.833,955.5 505.5,955.5C 505.5,953.833 505.5,952.167 505.5,950.5C 509.263,950.143 512.93,949.31 516.5,948C 518.667,947.167 520.167,945.667 521,943.5C 522.138,926.55 522.638,909.55 522.5,892.5C 522.333,876.833 522.167,861.167 522,845.5C 518.869,841.367 515.369,837.534 511.5,834C 509.975,832.991 508.308,832.491 506.5,832.5C 506.5,830.833 506.5,829.167 506.5,827.5C 519.837,827.333 533.171,827.5 546.5,828C 568.046,854.041 589.379,880.207 610.5,906.5 Z"/></g>
<g><path style="opacity:1" fill="#2e3f47" d="M 772.5,827.5 C 793.833,827.5 815.167,827.5 836.5,827.5C 836.5,829.167 836.5,830.833 836.5,832.5C 828.35,831.257 822.517,834.257 819,841.5C 818.068,870.528 818.401,899.528 820,928.5C 826.948,947.386 840.115,953.553 859.5,947C 868.556,942.942 874.389,936.109 877,926.5C 877.667,922.5 878.333,918.5 879,914.5C 879.667,891.167 879.667,867.833 879,844.5C 878.384,841.213 876.884,838.379 874.5,836C 870.064,833.891 865.397,832.724 860.5,832.5C 860.5,830.833 860.5,829.167 860.5,827.5C 874.5,827.5 888.5,827.5 902.5,827.5C 902.5,829.167 902.5,830.833 902.5,832.5C 895.452,832.1 890.619,835.1 888,841.5C 887.667,867.5 887.333,893.5 887,919.5C 884.952,940.211 873.786,952.711 853.5,957C 835.716,960.697 819.049,958.03 803.5,949C 795.162,942.49 790.329,933.99 789,923.5C 788.667,896.5 788.333,869.5 788,842.5C 787.869,839.629 786.703,837.295 784.5,835.5C 780.736,833.559 776.736,832.559 772.5,832.5C 772.5,830.833 772.5,829.167 772.5,827.5 Z"/></g>
<g><path style="opacity:1" fill="#2d3e47" d="M 1034.5,916.5 C 1036.78,916.077 1038.45,916.744 1039.5,918.5C 1036.79,930.733 1034.45,943.066 1032.5,955.5C 995.5,955.5 958.5,955.5 921.5,955.5C 921.5,953.833 921.5,952.167 921.5,950.5C 926.127,950.427 930.46,949.26 934.5,947C 936.317,945.2 937.484,943.034 938,940.5C 938.667,907.5 938.667,874.5 938,841.5C 934.833,834.495 929.333,831.495 921.5,832.5C 921.5,830.833 921.5,829.167 921.5,827.5C 957.833,827.5 994.167,827.5 1030.5,827.5C 1030.5,840.167 1030.5,852.833 1030.5,865.5C 1028.83,865.5 1027.17,865.5 1025.5,865.5C 1024.75,847.923 1015.75,837.756 998.5,835C 990.167,834.333 981.833,834.333 973.5,835C 971.274,836.227 969.774,838.061 969,840.5C 968.5,855.83 968.333,871.163 968.5,886.5C 987.848,887.818 998.181,878.818 999.5,859.5C 1001.05,858.548 1002.71,858.215 1004.5,858.5C 1004.5,879.833 1004.5,901.167 1004.5,922.5C 1002.83,922.5 1001.17,922.5 999.5,922.5C 999.134,902.133 988.801,892.466 968.5,893.5C 968.333,909.503 968.5,925.503 969,941.5C 969.427,945.527 971.594,948.027 975.5,949C 1004.1,953.712 1023.77,942.879 1034.5,916.5 Z"/></g>
<g><path style="opacity:1" fill="#2d3e47" d="M 1165.5,906.5 C 1165.78,907.289 1166.28,907.956 1167,908.5C 1167.83,886.996 1167.66,865.663 1166.5,844.5C 1166.56,840.452 1164.89,837.285 1161.5,835C 1157.69,833.228 1153.69,832.395 1149.5,832.5C 1149.5,830.833 1149.5,829.167 1149.5,827.5C 1163.17,827.5 1176.83,827.5 1190.5,827.5C 1190.5,829.167 1190.5,830.833 1190.5,832.5C 1183.64,831.732 1178.8,834.399 1176,840.5C 1175.5,879.832 1175.33,919.165 1175.5,958.5C 1173.21,958.756 1171.04,958.423 1169,957.5C 1141.33,923.833 1113.67,890.167 1086,856.5C 1085.33,883.833 1085.33,911.167 1086,938.5C 1088.54,947.037 1094.37,951.037 1103.5,950.5C 1103.5,952.167 1103.5,953.833 1103.5,955.5C 1089.17,955.5 1074.83,955.5 1060.5,955.5C 1060.5,953.833 1060.5,952.167 1060.5,950.5C 1064.26,950.143 1067.93,949.31 1071.5,948C 1073.67,947.167 1075.17,945.667 1076,943.5C 1077.14,926.55 1077.64,909.55 1077.5,892.5C 1077.33,876.833 1077.17,861.167 1077,845.5C 1073.87,841.367 1070.37,837.534 1066.5,834C 1064.98,832.991 1063.31,832.491 1061.5,832.5C 1061.5,830.833 1061.5,829.167 1061.5,827.5C 1074.84,827.333 1088.17,827.5 1101.5,828C 1123.05,854.041 1144.38,880.207 1165.5,906.5 Z"/></g>
<g><path style="opacity:1" fill="#2f4048" d="M 1404.5,824.5 C 1410.51,824.334 1416.51,824.501 1422.5,825C 1429.87,826.736 1437.2,828.569 1444.5,830.5C 1448.43,830.735 1450.77,828.901 1451.5,825C 1453.47,824.505 1455.47,824.338 1457.5,824.5C 1457.5,838.167 1457.5,851.833 1457.5,865.5C 1455.5,865.5 1453.5,865.5 1451.5,865.5C 1448.08,848.245 1438.08,836.745 1421.5,831C 1409.15,828.1 1400.32,832.266 1395,843.5C 1394.13,848.709 1394.8,853.709 1397,858.5C 1400.04,861.933 1403.54,864.766 1407.5,867C 1419.01,873.255 1430.68,879.255 1442.5,885C 1463.01,898.853 1467.84,917.019 1457,939.5C 1450.28,948.448 1441.45,954.281 1430.5,957C 1422.22,958.497 1413.89,958.831 1405.5,958C 1398.14,956.268 1390.8,954.435 1383.5,952.5C 1380.32,952.673 1378.32,954.34 1377.5,957.5C 1375.95,958.452 1374.29,958.785 1372.5,958.5C 1372.5,942.833 1372.5,927.167 1372.5,911.5C 1374.5,911.5 1376.5,911.5 1378.5,911.5C 1379.94,928.904 1388.28,941.737 1403.5,950C 1416.37,954.822 1427.54,952.322 1437,942.5C 1442.84,929.756 1439.68,919.923 1427.5,913C 1414.1,906.755 1401.1,899.755 1388.5,892C 1371.9,876.825 1369.06,859.325 1380,839.5C 1386.79,832.033 1394.95,827.033 1404.5,824.5 Z"/></g>
<g><path style="opacity:1" fill="#fdfdfd" d="M 1274.5,830.5 C 1293.56,831.04 1305.39,840.707 1310,859.5C 1314.58,881.48 1314.58,903.48 1310,925.5C 1302.44,950.201 1286.94,957.367 1263.5,947C 1257.68,941.185 1253.51,934.352 1251,926.5C 1244.61,901.304 1245.27,876.304 1253,851.5C 1256.78,840.889 1263.94,833.889 1274.5,830.5 Z"/></g>
<g><path style="opacity:1" fill="#c6cbce" d="M 611.5,844.5 C 612.663,865.663 612.829,886.996 612,908.5C 611.283,907.956 610.783,907.289 610.5,906.5C 611.497,886.007 611.831,865.34 611.5,844.5 Z"/></g>
<g><path style="opacity:1" fill="#c3c8cb" d="M 1166.5,844.5 C 1167.66,865.663 1167.83,886.996 1167,908.5C 1166.28,907.956 1165.78,907.289 1165.5,906.5C 1166.5,886.007 1166.83,865.34 1166.5,844.5 Z"/></g>
<g><path style="opacity:1" fill="#a1a7ac" d="M 480.5,916.5 C 482.265,915.539 484.265,915.205 486.5,915.5C 486.737,916.791 486.404,917.791 485.5,918.5C 484.448,916.744 482.781,916.077 480.5,916.5 Z"/></g>
<g><path style="opacity:1" fill="#a2a8ac" d="M 1034.5,916.5 C 1036.26,915.539 1038.26,915.205 1040.5,915.5C 1040.74,916.791 1040.4,917.791 1039.5,918.5C 1038.45,916.744 1036.78,916.077 1034.5,916.5 Z"/></g>
<g><path style="opacity:1" fill="#bd934a" d="M 1189.5,1000.5 C 1187.41,1000.44 1185.91,999.439 1185,997.5C 1185.14,995.762 1185.64,994.095 1186.5,992.5C 1187.97,990.59 1189.97,989.424 1192.5,989C 1181.5,988.333 1170.5,988.333 1159.5,989C 1160.71,990.039 1161.71,991.206 1162.5,992.5C 1159.83,994.588 1160.16,996.422 1163.5,998C 1162.04,1000.02 1160.04,1000.85 1157.5,1000.5C 1144.07,986.487 1129.07,984.82 1112.5,995.5C 1111.76,995.631 1111.09,995.464 1110.5,995C 1111.7,994.346 1111.7,993.846 1110.5,993.5C 1108.74,994.128 1107.24,995.128 1106,996.5C 1104.61,995.185 1103.61,995.519 1103,997.5C 1103.1,995.619 1102.93,993.953 1102.5,992.5C 1103.34,990.827 1104.68,989.66 1106.5,989C 1088.83,988.333 1071.17,988.333 1053.5,989C 1055.46,990.451 1056.8,992.284 1057.5,994.5C 1056.83,995.267 1055.99,995.934 1055,996.5C 1053.95,995.483 1052.78,995.316 1051.5,996C 1052.61,997.813 1051.94,998.646 1049.5,998.5C 1044.79,992.384 1038.45,989.717 1030.5,990.5C 1018.82,991.337 1010.98,997.337 1007,1008.5C 1005.09,1018.54 1007.92,1026.87 1015.5,1033.5C 1013.77,1034.01 1013.43,1034.84 1014.5,1036C 1013.5,1036.33 1012.5,1036.67 1011.5,1037C 1015.7,1039.67 1015.37,1040.84 1010.5,1040.5C 997.143,1030.06 993.643,1016.73 1000,1000.5C 1002.45,996.385 1005.28,992.552 1008.5,989C 1005.52,988.502 1002.52,988.335 999.5,988.5C 995.476,1026.03 975.143,1049.53 938.5,1059C 900.04,1064.15 871.873,1049.65 854,1015.5C 850.627,1006.77 848.46,997.765 847.5,988.5C 844.482,988.335 841.482,988.502 838.5,989C 843.15,992.486 846.15,996.986 847.5,1002.5C 845.685,1003.63 843.685,1004.3 841.5,1004.5C 841.688,1002.9 841.188,1001.56 840,1000.5C 839.049,1000.88 838.216,1001.22 837.5,1001.5C 830.168,991.997 820.502,988.497 808.5,991C 805.171,992.329 802.171,994.163 799.5,996.5C 799.047,995.542 798.381,994.708 797.5,994C 797.833,993.667 798.167,993.333 798.5,993C 797,992.167 795.833,991 795,989.5C 794.221,992.097 793.721,992.097 793.5,989.5C 776.338,988.338 759.005,988.171 741.5,989C 750.173,995.843 755.673,1004.68 758,1015.5C 759.252,1023.85 760.585,1032.18 762,1040.5C 763.51,1045.56 765.677,1050.22 768.5,1054.5C 768.658,1060.66 767.491,1060.66 765,1054.5C 763.86,1056.28 762.693,1057.95 761.5,1059.5C 756.729,1053.74 753.563,1047.07 752,1039.5C 750.982,1030.04 749.315,1020.7 747,1011.5C 738.003,993.251 723.503,986.085 703.5,990C 698.944,992.106 694.944,994.939 691.5,998.5C 691.631,997.761 691.464,997.094 691,996.5C 689.267,998.602 687.267,998.935 685,997.5C 684.667,998.167 684.333,998.833 684,999.5C 684.068,997.658 683.901,995.991 683.5,994.5C 684.228,992.265 685.561,990.432 687.5,989C 676.5,988.333 665.5,988.333 654.5,989C 658.346,990.086 661.68,991.919 664.5,994.5C 663.711,994.783 663.044,995.283 662.5,996C 663.051,997.398 663.384,998.732 663.5,1000C 662.638,1002.73 661.805,1002.9 661,1000.5C 660.617,1001.06 660.117,1001.39 659.5,1001.5C 646.141,993.463 632.808,993.63 619.5,1002C 609.035,1009.79 598.035,1016.79 586.5,1023C 572.836,1028.17 559.503,1027.5 546.5,1021C 535.378,1010.92 534.711,1000.25 544.5,989C 477.833,988.667 411.167,988.333 344.5,988C 342.32,985.582 341.987,982.916 343.5,980C 730.167,979.333 1116.83,979.333 1503.5,980C 1506.25,983.012 1505.92,985.679 1502.5,988C 1435.83,988.333 1369.17,988.667 1302.5,989C 1310.5,997.151 1311.67,1006.32 1306,1016.5C 1298.42,1023.58 1289.42,1026.92 1279,1026.5C 1269.37,1026.85 1260.54,1024.35 1252.5,1019C 1242.04,1011.21 1231.04,1004.21 1219.5,998C 1209.05,994.177 1199.05,995.011 1189.5,1000.5 Z"/></g>
<g><path style="opacity:1" fill="#fdfbf9" d="M 570.5,989.5 C 588.662,988.338 606.995,988.171 625.5,989C 621.047,990.726 616.714,992.726 612.5,995C 605.008,1000.58 597.341,1005.91 589.5,1011C 577.111,1018.55 564.444,1019.22 551.5,1013C 544.877,1004.29 546.544,997.627 556.5,993C 563.156,992.658 565.989,995.825 565,1002.5C 563.989,1003.34 562.822,1003.67 561.5,1003.5C 561.532,998.787 559.199,997.287 554.5,999C 551.334,1004.48 552.334,1009.14 557.5,1013C 570.708,1013.79 576.208,1007.62 574,994.5C 573.777,992.119 572.61,990.453 570.5,989.5 Z"/></g>
<g><path style="opacity:1" fill="#fdfcfa" d="M 683.5,994.5 C 680.439,997.603 678.106,1001.27 676.5,1005.5C 673.131,1001.13 669.131,997.464 664.5,994.5C 661.68,991.919 658.346,990.086 654.5,989C 665.5,988.333 676.5,988.333 687.5,989C 685.561,990.432 684.228,992.265 683.5,994.5 Z"/></g>
<g><path style="opacity:1" fill="#fefdfc" d="M 761.5,1059.5 C 761.953,1060.46 762.619,1061.29 763.5,1062C 736.313,1067.28 710.98,1077.28 687.5,1092C 676.858,1096.87 665.858,1098.2 654.5,1096C 650.388,1094.22 647.222,1091.39 645,1087.5C 642.791,1092.68 638.958,1094.85 633.5,1094C 639.462,1091.88 642.462,1087.72 642.5,1081.5C 664.741,1079.1 678.908,1067.1 685,1045.5C 697.861,1057.85 712.028,1059.68 727.5,1051C 735.691,1044.76 738.524,1036.6 736,1026.5C 729.826,1014.77 720.659,1011.61 708.5,1017C 704.99,1018.91 703.824,1021.74 705,1025.5C 705.956,1026.89 707.289,1027.56 709,1027.5C 711.765,1025.76 714.765,1024.43 718,1023.5C 727.707,1026 730.04,1031.67 725,1040.5C 712.26,1050.53 700.594,1049.2 690,1036.5C 682.239,1023.43 682.739,1010.77 691.5,998.5C 694.944,994.939 698.944,992.106 703.5,990C 723.503,986.085 738.003,993.251 747,1011.5C 749.315,1020.7 750.982,1030.04 752,1039.5C 753.563,1047.07 756.729,1053.74 761.5,1059.5 Z"/></g>
<g><path style="opacity:1" fill="#fdfdfc" d="M 793.5,989.5 C 783.326,1000.72 782.993,1012.22 792.5,1024C 783.522,1024.15 778.522,1028.65 777.5,1037.5C 778.378,1045.56 782.711,1048.72 790.5,1047C 792.68,1044.58 793.013,1041.92 791.5,1039C 790.207,1038.51 788.873,1038.34 787.5,1038.5C 787.352,1035.65 788.686,1033.98 791.5,1033.5C 799.234,1035.64 802.401,1040.64 801,1048.5C 796.63,1058.27 789.13,1062.1 778.5,1060C 775.011,1058.42 771.677,1056.59 768.5,1054.5C 765.677,1050.22 763.51,1045.56 762,1040.5C 760.585,1032.18 759.252,1023.85 758,1015.5C 755.673,1004.68 750.173,995.843 741.5,989C 759.005,988.171 776.338,988.338 793.5,989.5 Z"/></g>
<g><path style="opacity:1" fill="#fefdfc" d="M 1102.5,992.5 C 1097.7,996.49 1094.2,1001.49 1092,1007.5C 1089.02,1018.68 1086.69,1030.02 1085,1041.5C 1080.11,1058 1069.61,1063.5 1053.5,1058C 1045.58,1051.39 1044.58,1044.06 1050.5,1036C 1053.69,1033.22 1056.86,1033.05 1060,1035.5C 1060.48,1036.45 1060.65,1037.45 1060.5,1038.5C 1054.36,1039.03 1053.02,1041.86 1056.5,1047C 1066.85,1048.54 1071.02,1044.04 1069,1033.5C 1066.54,1027.51 1062.04,1024.35 1055.5,1024C 1062.61,1014.49 1063.28,1004.66 1057.5,994.5C 1056.8,992.284 1055.46,990.451 1053.5,989C 1071.17,988.333 1088.83,988.333 1106.5,989C 1104.68,989.66 1103.34,990.827 1102.5,992.5 Z"/></g>
<g><path style="opacity:1" fill="#fdfdfc" d="M 1157.5,1000.5 C 1167.31,1016.65 1164.97,1030.82 1150.5,1043C 1139.27,1050.2 1129.44,1048.7 1121,1038.5C 1118.27,1030.46 1120.94,1025.46 1129,1023.5C 1131.66,1023.75 1133.83,1024.92 1135.5,1027C 1139.83,1028.34 1142.5,1026.84 1143.5,1022.5C 1142.39,1019.56 1140.39,1017.39 1137.5,1016C 1118.35,1012.16 1109.52,1020 1111,1039.5C 1119.43,1055.54 1132.26,1060.37 1149.5,1054C 1154.24,1051.76 1158.57,1048.92 1162.5,1045.5C 1168.27,1067.28 1182.27,1079.28 1204.5,1081.5C 1204.68,1087.69 1207.68,1091.86 1213.5,1094C 1208.55,1094.86 1204.88,1093.02 1202.5,1088.5C 1195.19,1096.42 1186.19,1099.25 1175.5,1097C 1169.23,1095.8 1163.23,1093.8 1157.5,1091C 1134.71,1076.68 1110.04,1067.18 1083.5,1062.5C 1087.07,1059.03 1089.9,1055.03 1092,1050.5C 1095.32,1037.24 1098.32,1023.91 1101,1010.5C 1103.96,1004.72 1107.8,999.721 1112.5,995.5C 1129.07,984.82 1144.07,986.487 1157.5,1000.5 Z"/></g>
<g><path style="opacity:1" fill="#fdfcfa" d="M 1186.5,992.5 C 1180.11,995.291 1174.95,999.624 1171,1005.5C 1168.73,1000.74 1165.89,996.408 1162.5,992.5C 1161.71,991.206 1160.71,990.039 1159.5,989C 1170.5,988.333 1181.5,988.333 1192.5,989C 1189.97,989.424 1187.97,990.59 1186.5,992.5 Z"/></g>
<g><path style="opacity:1" fill="#fdfcfa" d="M 1221.5,989.5 C 1239.66,988.338 1258,988.171 1276.5,989C 1271.17,996 1271.17,1003 1276.5,1010C 1281.94,1014.37 1287.44,1014.54 1293,1010.5C 1296.09,1006.8 1296.26,1002.96 1293.5,999C 1288.91,997.423 1285.91,998.923 1284.5,1003.5C 1280.73,1000.83 1280.56,997.827 1284,994.5C 1290.94,991.707 1296.28,993.707 1300,1000.5C 1301.4,1007.77 1298.57,1012.61 1291.5,1015C 1280.36,1018.99 1269.7,1017.99 1259.5,1012C 1249.1,1004.61 1238.44,997.607 1227.5,991C 1225.56,990.187 1223.56,989.687 1221.5,989.5 Z"/></g>
<g><path style="opacity:1" fill="#fdfcfb" d="M 837.5,1001.5 C 843.923,1015.51 840.923,1027.01 828.5,1036C 822.388,1039.78 816.555,1043.95 811,1048.5C 811.597,1041.81 809.764,1035.98 805.5,1031C 818.025,1028.77 822.525,1021.61 819,1009.5C 815.281,1006.1 811.114,1005.6 806.5,1008C 803.966,1010.59 803.966,1013.25 806.5,1016C 807.793,1016.49 809.127,1016.66 810.5,1016.5C 810.763,1019.73 809.263,1021.07 806,1020.5C 798.587,1019.22 795.087,1014.72 795.5,1007C 795.589,1003 796.922,999.495 799.5,996.5C 802.171,994.163 805.171,992.329 808.5,991C 820.502,988.497 830.168,991.997 837.5,1001.5 Z"/></g>
<g><path style="opacity:1" fill="#fdfcfb" d="M 1049.5,998.5 C 1051.48,1003.28 1051.98,1008.28 1051,1013.5C 1047.86,1020.09 1043.19,1021.76 1037,1018.5C 1036.83,1018.17 1036.67,1017.83 1036.5,1017.5C 1041.35,1016.82 1043.19,1014.16 1042,1009.5C 1036.97,1005.22 1032.3,1005.55 1028,1010.5C 1024.95,1022.43 1029.45,1029.26 1041.5,1031C 1037.47,1036.1 1035.64,1041.93 1036,1048.5C 1029.57,1042.9 1022.74,1037.9 1015.5,1033.5C 1007.92,1026.87 1005.09,1018.54 1007,1008.5C 1010.98,997.337 1018.82,991.337 1030.5,990.5C 1038.45,989.717 1044.79,992.384 1049.5,998.5 Z"/></g>
<g><path style="opacity:1" fill="#fefdfd" d="M 1010.5,1040.5 C 1016.76,1045.31 1023.1,1050.15 1029.5,1055C 1051.37,1080.39 1053.2,1107.22 1035,1135.5C 1015.08,1158.7 990.584,1165.86 961.5,1157C 945.308,1149.81 934.808,1137.64 930,1120.5C 924.112,1094.11 933.278,1075.28 957.5,1064C 974.37,1061.02 986.537,1067.18 994,1082.5C 995.702,1089.24 994.202,1095.08 989.5,1100C 984.921,1101.58 981.921,1100.08 980.5,1095.5C 982.559,1094.43 984.392,1093.1 986,1091.5C 986.016,1084.75 982.849,1082.91 976.5,1086C 969.509,1093.79 970.176,1101.12 978.5,1108C 992.061,1112.46 1000.56,1107.63 1004,1093.5C 1002.98,1068.81 989.98,1055.48 965,1053.5C 945.834,1055.32 932.168,1064.99 924,1082.5C 912.613,1060.72 894.78,1051.56 870.5,1055C 858.062,1059.77 849.229,1068.27 844,1080.5C 841.517,1091.42 844.35,1100.59 852.5,1108C 862.315,1112.51 869.815,1110.01 875,1100.5C 877.761,1091.69 874.594,1086.36 865.5,1084.5C 861.746,1085.85 860.579,1088.52 862,1092.5C 863.11,1094.04 864.61,1094.7 866.5,1094.5C 864.923,1100.69 861.423,1102.02 856,1098.5C 850.938,1090.06 851.604,1082.06 858,1074.5C 866.303,1064.62 876.803,1061.12 889.5,1064C 912.708,1073.91 922.208,1091.41 918,1116.5C 912.287,1141.55 896.787,1156.38 871.5,1161C 842.086,1162.21 820.253,1150.05 806,1124.5C 793.029,1087.74 803.529,1059.91 837.5,1041C 849.553,1030.29 852.886,1017.45 847.5,1002.5C 846.15,996.986 843.15,992.486 838.5,989C 841.482,988.502 844.482,988.335 847.5,988.5C 848.46,997.765 850.627,1006.77 854,1015.5C 871.873,1049.65 900.04,1064.15 938.5,1059C 975.143,1049.53 995.476,1026.03 999.5,988.5C 1002.52,988.335 1005.52,988.502 1008.5,989C 1005.28,992.552 1002.45,996.385 1000,1000.5C 993.643,1016.73 997.143,1030.06 1010.5,1040.5 Z"/></g>
<g><path style="opacity:1" fill="#fefefe" d="M 857.5,988.5 C 901.833,988.5 946.167,988.5 990.5,988.5C 984.66,1027.67 961.994,1048.34 922.5,1050.5C 890.171,1048.68 869.005,1032.34 859,1001.5C 857.925,997.23 857.425,992.897 857.5,988.5 Z"/></g>
<g><path style="opacity:1" fill="#be954c" d="M 793.5,989.5 C 793.721,992.097 794.221,992.097 795,989.5C 795.833,991 797,992.167 798.5,993C 798.167,993.333 797.833,993.667 797.5,994C 798.381,994.708 799.047,995.542 799.5,996.5C 796.922,999.495 795.589,1003 795.5,1007C 795.087,1014.72 798.587,1019.22 806,1020.5C 809.263,1021.07 810.763,1019.73 810.5,1016.5C 809.127,1016.66 807.793,1016.49 806.5,1016C 803.966,1013.25 803.966,1010.59 806.5,1008C 811.114,1005.6 815.281,1006.1 819,1009.5C 822.525,1021.61 818.025,1028.77 805.5,1031C 809.764,1035.98 811.597,1041.81 811,1048.5C 816.555,1043.95 822.388,1039.78 828.5,1036C 840.923,1027.01 843.923,1015.51 837.5,1001.5C 838.216,1001.22 839.049,1000.88 840,1000.5C 841.188,1001.56 841.688,1002.9 841.5,1004.5C 843.685,1004.3 845.685,1003.63 847.5,1002.5C 852.886,1017.45 849.553,1030.29 837.5,1041C 803.529,1059.91 793.029,1087.74 806,1124.5C 820.253,1150.05 842.086,1162.21 871.5,1161C 896.787,1156.38 912.287,1141.55 918,1116.5C 922.208,1091.41 912.708,1073.91 889.5,1064C 876.803,1061.12 866.303,1064.62 858,1074.5C 851.604,1082.06 850.938,1090.06 856,1098.5C 861.423,1102.02 864.923,1100.69 866.5,1094.5C 864.61,1094.7 863.11,1094.04 862,1092.5C 860.579,1088.52 861.746,1085.85 865.5,1084.5C 874.594,1086.36 877.761,1091.69 875,1100.5C 869.815,1110.01 862.315,1112.51 852.5,1108C 844.35,1100.59 841.517,1091.42 844,1080.5C 849.229,1068.27 858.062,1059.77 870.5,1055C 894.78,1051.56 912.613,1060.72 924,1082.5C 932.168,1064.99 945.834,1055.32 965,1053.5C 989.98,1055.48 1002.98,1068.81 1004,1093.5C 1000.56,1107.63 992.061,1112.46 978.5,1108C 970.176,1101.12 969.509,1093.79 976.5,1086C 982.849,1082.91 986.016,1084.75 986,1091.5C 984.392,1093.1 982.559,1094.43 980.5,1095.5C 981.921,1100.08 984.921,1101.58 989.5,1100C 994.202,1095.08 995.702,1089.24 994,1082.5C 986.537,1067.18 974.37,1061.02 957.5,1064C 933.278,1075.28 924.112,1094.11 930,1120.5C 934.808,1137.64 945.308,1149.81 961.5,1157C 990.584,1165.86 1015.08,1158.7 1035,1135.5C 1053.2,1107.22 1051.37,1080.39 1029.5,1055C 1023.1,1050.15 1016.76,1045.31 1010.5,1040.5C 1015.37,1040.84 1015.7,1039.67 1011.5,1037C 1012.5,1036.67 1013.5,1036.33 1014.5,1036C 1013.43,1034.84 1013.77,1034.01 1015.5,1033.5C 1022.74,1037.9 1029.57,1042.9 1036,1048.5C 1035.64,1041.93 1037.47,1036.1 1041.5,1031C 1029.45,1029.26 1024.95,1022.43 1028,1010.5C 1032.3,1005.55 1036.97,1005.22 1042,1009.5C 1043.19,1014.16 1041.35,1016.82 1036.5,1017.5C 1036.67,1017.83 1036.83,1018.17 1037,1018.5C 1043.19,1021.76 1047.86,1020.09 1051,1013.5C 1051.98,1008.28 1051.48,1003.28 1049.5,998.5C 1051.94,998.646 1052.61,997.813 1051.5,996C 1052.78,995.316 1053.95,995.483 1055,996.5C 1055.99,995.934 1056.83,995.267 1057.5,994.5C 1063.28,1004.66 1062.61,1014.49 1055.5,1024C 1062.04,1024.35 1066.54,1027.51 1069,1033.5C 1071.02,1044.04 1066.85,1048.54 1056.5,1047C 1053.02,1041.86 1054.36,1039.03 1060.5,1038.5C 1060.65,1037.45 1060.48,1036.45 1060,1035.5C 1056.86,1033.05 1053.69,1033.22 1050.5,1036C 1044.58,1044.06 1045.58,1051.39 1053.5,1058C 1069.61,1063.5 1080.11,1058 1085,1041.5C 1086.69,1030.02 1089.02,1018.68 1092,1007.5C 1094.2,1001.49 1097.7,996.49 1102.5,992.5C 1102.93,993.953 1103.1,995.619 1103,997.5C 1103.61,995.519 1104.61,995.185 1106,996.5C 1107.24,995.128 1108.74,994.128 1110.5,993.5C 1111.7,993.846 1111.7,994.346 1110.5,995C 1111.09,995.464 1111.76,995.631 1112.5,995.5C 1107.8,999.721 1103.96,1004.72 1101,1010.5C 1098.32,1023.91 1095.32,1037.24 1092,1050.5C 1089.9,1055.03 1087.07,1059.03 1083.5,1062.5C 1110.04,1067.18 1134.71,1076.68 1157.5,1091C 1163.23,1093.8 1169.23,1095.8 1175.5,1097C 1186.19,1099.25 1195.19,1096.42 1202.5,1088.5C 1204.88,1093.02 1208.55,1094.86 1213.5,1094C 1207.68,1091.86 1204.68,1087.69 1204.5,1081.5C 1182.27,1079.28 1168.27,1067.28 1162.5,1045.5C 1158.57,1048.92 1154.24,1051.76 1149.5,1054C 1132.26,1060.37 1119.43,1055.54 1111,1039.5C 1109.52,1020 1118.35,1012.16 1137.5,1016C 1140.39,1017.39 1142.39,1019.56 1143.5,1022.5C 1142.5,1026.84 1139.83,1028.34 1135.5,1027C 1133.83,1024.92 1131.66,1023.75 1129,1023.5C 1120.94,1025.46 1118.27,1030.46 1121,1038.5C 1129.44,1048.7 1139.27,1050.2 1150.5,1043C 1164.97,1030.82 1167.31,1016.65 1157.5,1000.5C 1160.04,1000.85 1162.04,1000.02 1163.5,998C 1160.16,996.422 1159.83,994.588 1162.5,992.5C 1165.89,996.408 1168.73,1000.74 1171,1005.5C 1174.95,999.624 1180.11,995.291 1186.5,992.5C 1185.64,994.095 1185.14,995.762 1185,997.5C 1185.91,999.439 1187.41,1000.44 1189.5,1000.5C 1169.99,1016.21 1166.16,1035.21 1178,1057.5C 1189.86,1072.46 1204.36,1075.63 1221.5,1067C 1223.28,1064.76 1223.78,1062.26 1223,1059.5C 1221.99,1058.66 1220.82,1058.33 1219.5,1058.5C 1220.72,1064.45 1218.38,1066.95 1212.5,1066C 1208.08,1060.36 1208.75,1055.36 1214.5,1051C 1223.44,1047.05 1229.6,1049.55 1233,1058.5C 1234.17,1065.31 1232.01,1070.81 1226.5,1075C 1231.26,1079.49 1232.76,1084.99 1231,1091.5C 1227.77,1100.4 1221.6,1106.23 1212.5,1109C 1208.53,1109.85 1204.53,1110.52 1200.5,1111C 1211.35,1115.33 1211.01,1118.99 1199.5,1122C 1188.13,1123.23 1177.46,1121.06 1167.5,1115.5C 1167.42,1118.33 1167.25,1121.33 1167,1124.5C 1166.65,1126.18 1165.65,1127.18 1164,1127.5C 1153.49,1103.99 1136.16,1087.66 1112,1078.5C 1111.5,1078.67 1111,1078.83 1110.5,1079C 1121.39,1083.88 1130.55,1091.04 1138,1100.5C 1141.53,1104.81 1142.2,1109.47 1140,1114.5C 1137.37,1116.16 1134.53,1116.66 1131.5,1116C 1115.08,1108.58 1102.92,1096.75 1095,1080.5C 1094.33,1081.5 1094.33,1082.5 1095,1083.5C 1100.59,1093.68 1105.92,1104.01 1111,1114.5C 1112.27,1118.4 1112.77,1122.4 1112.5,1126.5C 1107.85,1125.71 1103.18,1125.54 1098.5,1126C 1102.45,1126.54 1105.95,1128.04 1109,1130.5C 1109.73,1138.09 1106.23,1140.92 1098.5,1139C 1090.77,1135.73 1086.27,1129.9 1085,1121.5C 1083.8,1113.23 1083.13,1104.89 1083,1096.5C 1079.57,1079.55 1069.41,1072.21 1052.5,1074.5C 1063.33,1122.01 1045.66,1153.51 999.5,1169C 972.475,1174.66 949.975,1167.16 932,1146.5C 928.555,1141.94 925.888,1136.94 924,1131.5C 907.982,1162.76 882.482,1175.26 847.5,1169C 801.542,1152.92 783.875,1121.09 794.5,1073.5C 776.324,1072.49 766.157,1081.16 764,1099.5C 764.819,1111.07 762.819,1122.07 758,1132.5C 753.143,1139.36 746.976,1141.03 739.5,1137.5C 736.572,1133.7 737.239,1130.53 741.5,1128C 743.715,1126.96 746.048,1126.29 748.5,1126C 744.141,1125.47 739.808,1125.63 735.5,1126.5C 735.21,1122.06 735.71,1117.73 737,1113.5C 741.745,1103.68 746.745,1094.01 752,1084.5C 752.667,1083.5 752.667,1082.5 752,1081.5C 744.355,1097.81 732.189,1109.31 715.5,1116C 707.668,1116.82 704.835,1113.32 707,1105.5C 713.604,1094.23 722.771,1085.73 734.5,1080C 717.087,1085.05 703.254,1095.22 693,1110.5C 689.804,1116.23 686.637,1121.9 683.5,1127.5C 681.803,1126.64 680.637,1125.3 680,1123.5C 679.949,1120.72 679.782,1118.06 679.5,1115.5C 667.507,1122.8 654.84,1124.3 641.5,1120C 640.101,1118.94 639.101,1117.61 638.5,1116C 640.542,1113.42 643.209,1111.75 646.5,1111C 631.957,1111.16 621.791,1104.66 616,1091.5C 614.35,1085.07 615.85,1079.57 620.5,1075C 612.568,1066.64 612.568,1058.3 620.5,1050C 628.15,1047.7 633.983,1049.86 638,1056.5C 639.395,1061.61 637.561,1064.94 632.5,1066.5C 628.33,1065.51 626.663,1062.84 627.5,1058.5C 624.757,1058.08 623.424,1059.24 623.5,1062C 624.784,1065.95 627.45,1068.62 631.5,1070C 655.616,1074.35 670.45,1064.52 676,1040.5C 677.58,1024.38 672.08,1011.38 659.5,1001.5C 660.117,1001.39 660.617,1001.06 661,1000.5C 661.805,1002.9 662.638,1002.73 663.5,1000C 663.384,998.732 663.051,997.398 662.5,996C 663.044,995.283 663.711,994.783 664.5,994.5C 669.131,997.464 673.131,1001.13 676.5,1005.5C 678.106,1001.27 680.439,997.603 683.5,994.5C 683.901,995.991 684.068,997.658 684,999.5C 684.333,998.833 684.667,998.167 685,997.5C 687.267,998.935 689.267,998.602 691,996.5C 691.464,997.094 691.631,997.761 691.5,998.5C 682.739,1010.77 682.239,1023.43 690,1036.5C 700.594,1049.2 712.26,1050.53 725,1040.5C 730.04,1031.67 727.707,1026 718,1023.5C 714.765,1024.43 711.765,1025.76 709,1027.5C 707.289,1027.56 705.956,1026.89 705,1025.5C 703.824,1021.74 704.99,1018.91 708.5,1017C 720.659,1011.61 729.826,1014.77 736,1026.5C 738.524,1036.6 735.691,1044.76 727.5,1051C 712.028,1059.68 697.861,1057.85 685,1045.5C 678.908,1067.1 664.741,1079.1 642.5,1081.5C 642.462,1087.72 639.462,1091.88 633.5,1094C 638.958,1094.85 642.791,1092.68 645,1087.5C 647.222,1091.39 650.388,1094.22 654.5,1096C 665.858,1098.2 676.858,1096.87 687.5,1092C 710.98,1077.28 736.313,1067.28 763.5,1062C 762.619,1061.29 761.953,1060.46 761.5,1059.5C 762.693,1057.95 763.86,1056.28 765,1054.5C 767.491,1060.66 768.658,1060.66 768.5,1054.5C 771.677,1056.59 775.011,1058.42 778.5,1060C 789.13,1062.1 796.63,1058.27 801,1048.5C 802.401,1040.64 799.234,1035.64 791.5,1033.5C 788.686,1033.98 787.352,1035.65 787.5,1038.5C 788.873,1038.34 790.207,1038.51 791.5,1039C 793.013,1041.92 792.68,1044.58 790.5,1047C 782.711,1048.72 778.378,1045.56 777.5,1037.5C 778.522,1028.65 783.522,1024.15 792.5,1024C 782.993,1012.22 783.326,1000.72 793.5,989.5 Z"/></g>
<g><path style="opacity:1" fill="#f8f3ec" d="M 1068.5,1071.5 C 1069.6,1070.4 1070.93,1070.24 1072.5,1071C 1084.2,1075.88 1090.2,1084.72 1090.5,1097.5C 1090.12,1102.9 1089.29,1108.23 1088,1113.5C 1090.01,1097.98 1085.51,1084.82 1074.5,1074C 1072.59,1072.88 1070.59,1072.04 1068.5,1071.5 Z"/></g>
<g><path style="opacity:1" fill="#faf6f1" d="M 775.5,1070.5 C 776.873,1070.34 778.207,1070.51 779.5,1071C 770.599,1074.23 764.766,1080.4 762,1089.5C 760.104,1097.03 759.104,1104.7 759,1112.5C 756.219,1101.41 757.219,1090.75 762,1080.5C 765.802,1076.04 770.302,1072.7 775.5,1070.5 Z"/></g>
<g><path style="opacity:1" fill="#faf7f2" d="M 639.5,1095.5 C 641.199,1095.34 642.866,1095.51 644.5,1096C 653.024,1102.84 662.691,1105.17 673.5,1103C 679.596,1101.64 685.596,1100.31 691.5,1099C 674.677,1108.55 657.677,1108.88 640.5,1100C 637.581,1098.46 637.248,1096.96 639.5,1095.5 Z"/></g>
<g><path style="opacity:1" fill="#faf6f0" d="M 1150.5,1096.5 C 1150.56,1095.96 1150.89,1095.62 1151.5,1095.5C 1169.42,1106.06 1187.25,1106.06 1205,1095.5C 1206.81,1096.08 1208.64,1096.58 1210.5,1097C 1198.88,1105.59 1185.88,1108.59 1171.5,1106C 1164.24,1103.37 1157.24,1100.2 1150.5,1096.5 Z"/></g>
</svg>
